<svg width="29" height="29" viewBox="0 0 29 29" fill="none" xmlns="http://www.w3.org/2000/svg">
<path d="M2.14159 4.0188H26.9366C27.9535 4.0188 28.8139 3.1584 28.8139 2.14157C28.8139 1.12474 27.9535 0.264343 26.9366 0.264343H2.14159C1.12476 0.264343 0.264359 1.12474 0.264359 2.14157C0.264359 3.1584 1.04654 4.0188 2.14159 4.0188ZM26.8584 24.9812H2.14159C1.12476 24.9812 0.264359 25.8416 0.264359 26.8584C0.264359 27.8752 1.12476 28.7356 2.14159 28.7356H26.9366C27.9535 28.7356 28.8139 27.8752 28.8139 26.8584C28.8139 25.8416 27.9535 24.9812 26.8584 24.9812ZM26.8584 12.6228H2.14159C1.12476 12.6228 0.264359 13.4832 0.264359 14.5C0.264359 15.5168 1.12476 16.3772 2.14159 16.3772H26.9366C27.9535 16.3772 28.8139 15.5168 28.8139 14.5C28.8139 13.4832 27.9535 12.6228 26.8584 12.6228Z" fill="url(#paint0_linear_633_25)"/>
<defs>
<linearGradient id="paint0_linear_633_25" x1="0.264359" y1="14.5" x2="28.8183" y2="14.5857" gradientUnits="userSpaceOnUse">
<stop stop-color="#5F6F56"/>
<stop offset="1" stop-color="#475240"/>
</linearGradient>
</defs>
</svg>
