<svg width="63" height="63" viewBox="0 0 63 63" fill="none" xmlns="http://www.w3.org/2000/svg">
<g clip-path="url(#clip0_1_117)">
<path d="M1.14828 31.5C1.33448 31.3147 1.33448 31.0368 1.14828 30.8515C1.02414 30.697 0.931036 30.4809 0.931036 30.2647C0.931036 30.0485 1.02414 29.8632 1.14828 29.7088C1.45862 29.4 1.95517 29.4 2.26552 29.7088C2.42069 29.8632 2.48276 30.0794 2.48276 30.2647C2.48276 30.45 2.38966 30.6662 2.26552 30.8206C2.07931 31.0059 2.07931 31.2838 2.26552 31.4691C2.35862 31.5618 2.48276 31.5926 2.6069 31.5926C2.73104 31.5926 2.85517 31.5618 2.94828 31.4691C3.25862 31.1603 3.44483 30.7279 3.44483 30.2647C3.44483 29.8015 3.25862 29.3691 2.94828 29.0603C2.63793 28.7515 2.20345 28.5662 1.73793 28.5662C1.27242 28.5662 0.837933 28.7515 0.527588 29.0603C0.217243 29.3691 0.0310364 29.8015 0.0310364 30.2647C0.0310364 30.7279 0.217243 31.1603 0.527588 31.4691C0.68276 31.6544 0.993105 31.6544 1.14828 31.5Z" fill="#5F6F56"/>
<path d="M53.7828 13.7426C54.7138 13.7426 55.4897 12.9706 55.4897 12.0441C55.4897 11.1176 54.7138 10.3456 53.7828 10.3456C53.5345 10.3456 53.3172 10.5618 53.3172 10.8088C53.3172 11.0559 53.5345 11.2721 53.7828 11.2721C54.2172 11.2721 54.5586 11.6118 54.5586 12.0441C54.5586 12.4765 54.2172 12.8162 53.7828 12.8162C53.3483 12.8162 53.0069 12.4765 53.0069 12.0441C53.0069 11.7971 52.7897 11.5809 52.5414 11.5809C52.2931 11.5809 52.0759 11.7971 52.0759 12.0441C52.0759 13.0015 52.8207 13.7426 53.7828 13.7426Z" fill="#5F6F56"/>
<path d="M12.2896 35.0515C12.2896 34.372 11.731 33.8162 11.0483 33.8162C10.3655 33.8162 9.80688 34.372 9.80688 35.0515C9.80688 35.7309 10.3655 36.2868 11.0483 36.2868C11.731 36.2868 12.2896 35.7309 12.2896 35.0515ZM10.7379 35.0515C10.7379 34.897 10.8621 34.7426 11.0483 34.7426C11.2345 34.7426 11.3586 34.8662 11.3586 35.0515C11.3586 35.2368 11.2345 35.3603 11.0483 35.3603C10.8621 35.3603 10.7379 35.2059 10.7379 35.0515Z" fill="#5F6F56"/>
<path d="M61.7586 29.4927C62.4414 29.4927 63 28.9368 63 28.2574C63 27.578 62.4414 27.0221 61.7586 27.0221C61.0759 27.0221 60.5172 27.578 60.5172 28.2574C60.5172 28.9368 61.0759 29.4927 61.7586 29.4927ZM61.7586 27.9794C61.9138 27.9794 62.069 28.103 62.069 28.2883C62.069 28.4736 61.9448 28.5971 61.7586 28.5971C61.5724 28.5971 61.4483 28.4736 61.4483 28.2883C61.4483 28.103 61.6034 27.9794 61.7586 27.9794Z" fill="#5F6F56"/>
<path d="M7.94484 7.47352C8.6276 7.47352 9.18622 6.91764 9.18622 6.23822C9.18622 5.55881 8.6276 5.00293 7.94484 5.00293C7.26208 5.00293 6.70346 5.55881 6.70346 6.23822C6.70346 6.91764 7.26208 7.47352 7.94484 7.47352ZM7.94484 5.9294C8.10001 5.9294 8.25518 6.05293 8.25518 6.23822C8.25518 6.42352 8.13105 6.54705 7.94484 6.54705C7.75863 6.54705 7.6345 6.42352 7.6345 6.23822C7.6345 6.05293 7.78967 5.9294 7.94484 5.9294Z" fill="#5F6F56"/>
<path d="M26.3483 2.25442H27.0621V2.96471C27.0621 3.21177 27.2793 3.42795 27.5276 3.42795C27.7759 3.42795 27.9931 3.21177 27.9931 2.96471V2.25442H28.7069C28.9552 2.25442 29.1724 2.03824 29.1724 1.79118C29.1724 1.54412 28.9552 1.32795 28.7069 1.32795H27.9931V0.617654C27.9931 0.370595 27.7759 0.154419 27.5276 0.154419C27.2793 0.154419 27.0621 0.370595 27.0621 0.617654V1.32795H26.3483C26.1 1.32795 25.8828 1.54412 25.8828 1.79118C25.8828 2.03824 26.069 2.25442 26.3483 2.25442Z" fill="#5F6F56"/>
<path d="M54.8379 32.6118C54.5896 32.6118 54.3724 32.8279 54.3724 33.075C54.3724 33.3221 54.5896 33.5382 54.8379 33.5382H55.5517V34.2485C55.5517 34.4956 55.769 34.7118 56.0172 34.7118C56.2655 34.7118 56.4827 34.4956 56.4827 34.2485V33.5382H57.1965C57.4448 33.5382 57.6621 33.3221 57.6621 33.075C57.6621 32.8279 57.4448 32.6118 57.1965 32.6118H56.4827V31.9015C56.4827 31.6544 56.2655 31.4382 56.0172 31.4382C55.769 31.4382 55.5517 31.6544 55.5517 31.9015V32.6118H54.8379Z" fill="#5F6F56"/>
<path d="M30.4759 57.0397C30.4759 56.7927 30.2586 56.5765 30.0104 56.5765H29.2966V55.8662C29.2966 55.6191 29.0793 55.403 28.831 55.403C28.5828 55.403 28.3655 55.6191 28.3655 55.8662V56.5765H27.6517C27.4035 56.5765 27.1862 56.7927 27.1862 57.0397C27.1862 57.2868 27.4035 57.503 27.6517 57.503H28.3655V58.2132C28.3655 58.4603 28.5828 58.6765 28.831 58.6765C29.0793 58.6765 29.2966 58.4603 29.2966 58.2132V57.503H30.0104C30.2586 57.503 30.4759 57.2868 30.4759 57.0397Z" fill="#5F6F56"/>
<path d="M13.5621 39.6838C13.1586 39.8691 12.8172 39.9926 12.6 40.0544C9.24828 41.197 5.43104 42.0926 2.79311 42.6485C2.45173 42.7103 2.23449 43.05 2.32759 43.3897C2.38966 43.6676 2.63794 43.8838 2.94828 43.8838C2.97932 43.8838 3.04139 43.8838 3.07242 43.8838C5.71035 43.3279 9.58966 42.4323 13.0035 41.2588C13.2517 41.1662 13.5931 41.0426 14.0586 40.8573C15.0207 40.4559 16.1379 40.7029 16.8207 41.5059L17.3483 42.1235C17.4414 42.6485 17.5345 43.1735 17.6276 43.6676C18.3724 47.6206 19.0241 51.0176 19.6759 53.4264C20.1104 55.0014 20.9793 56.0206 22.0966 56.3294C22.0035 57.3794 21.8172 58.1823 21.2897 58.6764C20.4207 59.5103 18.7759 60.5294 18.7448 60.5294C18.4655 60.7147 18.3724 61.0853 18.5276 61.3941C18.6517 61.5794 18.8379 61.7029 19.0552 61.7029C19.1793 61.7029 19.2724 61.672 19.3655 61.6103C19.4276 61.5794 20.7621 60.7456 21.7552 59.9117C22.1276 60.1588 22.6241 60.4985 22.9655 60.8691C23.0897 60.9926 23.2448 61.0853 23.431 61.0853C23.5862 61.0853 23.7414 61.0235 23.8345 60.9309C24.0828 60.7147 24.1138 60.3132 23.8966 60.0662C23.5241 59.6338 22.9966 59.2632 22.6241 59.0162C23.0897 58.275 23.2448 57.3176 23.3069 56.422C24.1138 56.2985 24.9517 55.8662 25.7897 55.125L25.8517 55.0632C26.2241 54.7544 26.5966 54.3529 26.969 53.8897L27.031 53.8279C27.0621 53.7662 27.0931 53.7353 27.1241 53.7044C27.2173 53.5809 27.3104 53.4573 27.4035 53.3338C27.5586 53.1485 27.6828 52.9632 27.8379 52.7779L27.9 52.7162C28.0241 52.5617 28.1173 52.4073 28.2414 52.2529C28.5517 51.8514 28.8 51.5117 29.0793 51.2029C29.1414 51.1412 29.2035 51.0485 29.2966 50.9559C29.4517 50.7706 29.6379 50.6162 29.7931 50.4617L29.8241 50.4309C29.8552 50.4 29.8862 50.3691 29.9483 50.3382C30.2586 50.0603 30.569 49.8441 30.9414 49.6279C31.0035 49.597 31.0345 49.5662 31.1276 49.5353C31.2207 49.4735 31.3138 49.4426 31.4379 49.3809L31.469 49.35C31.531 49.3191 31.5931 49.2882 31.6241 49.2573C31.7483 49.1956 31.8724 49.1338 31.9966 49.1029C32.0586 49.1338 32.0897 49.1647 32.1517 49.1956C32.6793 49.5044 33.1759 49.875 33.6414 50.2456L33.8897 50.4617C34.0138 50.5853 34.169 50.6779 34.2931 50.8014C34.4173 50.8941 34.5414 51.0176 34.6655 51.1412C34.7276 51.172 34.7586 51.2338 34.8207 51.2956C34.9138 51.3573 34.9759 51.45 35.069 51.5426L35.1 51.5735C35.2241 51.697 35.3173 51.7897 35.4104 51.9132C35.4414 51.9441 35.4724 51.975 35.5035 52.0059L35.9069 52.4382C36 52.5617 36.0931 52.6544 36.1862 52.7779C36.2793 52.9014 36.3724 52.9941 36.4655 53.1176L36.5586 53.2103C36.6828 53.3647 36.8069 53.5191 36.931 53.6735C37.6759 54.6309 38.4517 55.372 39.2897 55.8353C39.8793 56.175 40.5 56.3912 41.0897 56.4529C41.2138 57.6573 41.0586 59.1706 40.9035 60.375C40.1586 60.622 39.4138 60.9617 38.8862 61.3632C38.6069 61.5485 38.5448 61.95 38.731 62.2279C38.8552 62.4132 39.0414 62.475 39.2276 62.475C39.3517 62.475 39.4759 62.4441 39.6 62.3514C40.0035 62.0735 40.531 61.8264 41.0586 61.6103C41.2138 61.9809 41.431 62.475 41.7414 62.8456C41.8655 63 42.0517 63.0926 42.2379 63.0926C42.3621 63.0926 42.5172 63.0617 42.6104 62.9691C42.8897 62.7529 42.9207 62.3823 42.7035 62.1044C42.4241 61.7647 42.1759 61.147 42.0828 60.8073C42.1448 60.3441 42.2069 59.8191 42.269 59.325C42.6104 59.5412 43.0138 59.8809 43.3552 60.2515C43.4793 60.4059 43.6345 60.4676 43.8207 60.4676C43.9759 60.4676 44.1 60.4059 44.2241 60.3132C44.4724 60.097 44.5035 59.6956 44.2862 59.4485C43.6655 58.7382 42.8586 58.2132 42.3621 57.9662C42.3931 57.4103 42.3621 56.8853 42.331 56.3603C43.4172 55.9897 44.1931 54.9397 44.4414 53.4573C44.5966 52.5309 44.6897 51.2956 44.7828 49.875C44.9069 47.9294 45.0621 45.5823 45.4655 42.9882C45.4966 42.8338 45.6517 42.2162 46.1483 41.5676C46.7379 40.7956 47.8862 40.5485 48.8793 40.95C49.3138 41.1353 49.6552 41.2588 49.9035 41.3514C53.3173 42.525 57.1966 43.4206 59.8345 43.9764C59.8655 43.9764 59.9276 43.9764 59.9586 43.9764C60.2379 43.9764 60.5172 43.7912 60.5793 43.4823C60.6414 43.1426 60.4241 42.8338 60.1138 42.7412C57.5069 42.1853 53.6586 41.2897 50.3069 40.147C50.0897 40.0853 49.7483 39.9309 49.3448 39.7764C48.1966 39.3132 46.9552 39.4059 45.9931 39.9926C46.4276 37.9853 46.9862 36.1014 47.7 34.3103C48.2586 32.8588 48.631 31.4382 48.7552 30.1412C49.0655 27.2691 48.3828 24.8603 46.8 23.1617C45.2173 21.4941 42.8897 20.6603 40.0655 20.7529C38.9793 20.7838 37.8931 20.9073 36.8069 21.1235C36.6207 21.1544 36.4655 21.2779 36.3724 21.4323C36.3724 21.4323 35.8138 22.5132 35.1621 23.8103C34.6655 24.7985 34.231 25.6632 33.9207 26.4044C32.9276 28.5662 31.7793 32.025 31.7172 32.1794C31.6241 32.4882 31.7793 32.8588 32.1207 32.9514C32.4621 33.0441 32.8035 32.8897 32.8966 32.55C32.8966 32.5191 33.9828 29.3073 34.9138 27.1764C35.1 27.1456 35.2862 27.0838 35.4724 27.0529C36.0931 26.9294 36.7759 26.8367 37.5207 26.8059C39.3207 26.7441 40.8414 27.3926 41.6173 28.597C42.8276 30.3882 42.3621 32.4264 41.8345 34.5882C41.7414 35.0206 41.6173 35.4838 41.5241 35.9162C41.1517 37.8617 40.6862 40.425 40.6862 43.0191C40.6862 44.6867 40.7793 46.3544 40.9035 47.9912C40.9345 48.547 40.9655 49.1029 40.9966 49.6588C40.6241 48.2691 40.1586 46.8485 39.5069 45.7367C39.2586 45.3044 38.8862 44.8103 38.4828 44.2544C38.1724 43.822 37.8 43.3588 37.4586 42.8338C38.0793 42.4014 39.0724 41.5676 39.5379 40.3323C39.6621 40.0235 39.5069 39.6529 39.1655 39.5294C38.8552 39.4059 38.4828 39.5603 38.3586 39.9C38.0173 40.7956 37.2724 41.4441 36.7759 41.7838C36.2483 40.7956 35.8138 39.7147 35.8138 38.6338C35.8138 38.2941 35.5345 38.0162 35.1931 38.0162C34.8517 38.0162 34.5724 38.2941 34.5724 38.6338C34.5724 41.1662 36.2173 43.3897 37.4276 44.9956C37.831 45.5206 38.1724 45.9838 38.3586 46.3544C39.5069 48.4544 40.1586 51.6044 40.531 53.9206C40.3448 53.6117 40.1276 53.2412 39.8483 52.7779C39.7862 52.6544 39.7241 52.5617 39.6931 52.5C38.5448 50.647 37.4276 48.9176 36.2172 47.0029C35.1621 45.3662 33.5793 43.2353 32.0586 42.4015C31.9035 42.3088 31.6862 42.3088 31.531 42.3706C30.0724 42.9573 28.769 44.7176 27.8069 45.9838C26.6276 47.5588 25.6345 49.35 24.7966 51.2647C24.4241 52.0985 24.0517 52.9632 23.5862 53.797C23.8035 52.9632 23.9897 52.222 24.0207 52.222L36.6828 13.1559L36.931 13.2485C37.0241 13.2794 37.1173 13.2794 37.2104 13.2794C37.6448 13.2794 38.0483 13.0014 38.1724 12.5691L38.7 10.8397C38.8552 10.3764 38.6379 9.88233 38.2035 9.66615L40.3138 2.77939C40.4069 2.43968 40.2207 2.09998 39.9104 2.00733C39.569 1.91468 39.2276 2.09998 39.1345 2.4088L37.0241 9.29557L35.9379 8.95586L37.3345 4.38527C37.4276 4.04557 37.2414 3.70586 36.931 3.61321C36.5897 3.52057 36.2483 3.70586 36.1552 4.01468L34.7586 8.61615C34.5724 8.58527 34.3552 8.64704 34.2 8.73968C33.9517 8.86321 33.7966 9.07939 33.7035 9.32645L33.1759 11.0559C33.0828 11.3029 33.1138 11.5809 33.2379 11.8279C33.3621 12.075 33.5793 12.2294 33.8276 12.322L34.0759 12.4147L22.9966 51.7588C22.9655 51.8206 22.7483 52.5617 22.5621 53.4264C22.5 52.5 22.469 51.0485 22.5621 48.8867C22.5621 48.7323 22.5621 48.6397 22.5621 48.5779C22.5931 47.775 22.6241 46.972 22.6552 46.1691C22.7483 43.5441 22.8724 40.8264 22.5621 38.0779C22.4379 37.0897 22.2828 36.1323 22.0966 35.2059C21.569 32.6735 21.3517 29.2764 23.2138 27.7014C23.2448 27.6706 23.2448 27.6706 23.2759 27.6397L23.3069 27.6088L23.4 27.547C23.431 27.5162 23.4621 27.4853 23.5241 27.4544C24.2069 26.9912 25.3241 26.775 26.7517 26.8367C26.9379 26.8367 27.1241 26.8676 27.3104 26.8676C27.1862 27.5162 27.0931 28.1338 26.9379 28.7823C26.8759 29.122 27.0931 29.4309 27.4035 29.5235C27.7448 29.5853 28.0552 29.3691 28.1483 29.0603C28.3345 28.1956 28.4897 27.3309 28.6448 26.4662C28.6448 26.4662 28.6448 26.4662 28.6448 26.4353C28.769 25.6323 28.8621 24.7985 28.9241 24.0264C29.0172 22.575 28.9552 21.6794 28.9552 21.6485C28.9241 21.3706 28.7379 21.1544 28.4586 21.0926C27.3414 20.8456 25.5414 20.6912 23.9897 20.6912C21.7552 20.6912 19.9862 21.1235 18.6207 21.9882C18.5276 22.05 18.4655 22.0809 18.4035 22.1426C18.3414 22.1735 18.2793 22.2353 18.2172 22.2662V22.2353L18.1862 22.2662C18.1241 22.3279 18.0621 22.3588 18 22.4206C15.9517 24.1191 15.0517 26.9603 15.3 30.9132C15.3621 32.0559 15.5483 33.2912 15.8276 34.5882C16.231 36.4412 16.5724 38.2632 16.9138 39.9617C15.9517 39.3441 14.6793 39.2206 13.5621 39.6838ZM35.9379 51.4191L36.3724 50.9867C36.2483 50.8632 36.1241 50.7397 36 50.6162L35.9379 50.5544C35.8448 50.4617 35.7517 50.3691 35.6586 50.2765C35.5966 50.2147 35.5345 50.1529 35.4724 50.122C35.3483 49.9985 35.2241 49.875 35.1 49.7823C34.9759 49.6588 34.8207 49.5353 34.6655 49.4117L34.6345 49.3809L34.3552 49.1647C33.8586 48.7632 33.3 48.3926 32.7414 48.0529C32.5862 47.9603 32.4621 47.8676 32.3069 47.775C32.1517 47.6823 31.9655 47.6823 31.7793 47.7441C31.5621 47.8367 31.3138 47.9294 31.0345 48.0529C30.9724 48.0838 30.8793 48.1147 30.8173 48.1456C30.6931 48.2073 30.569 48.2691 30.4448 48.3309C30.3828 48.3617 30.2897 48.4235 30.2276 48.4544C29.7931 48.7014 29.4207 48.9794 29.0793 49.2882C29.0172 49.35 28.9552 49.3809 28.8931 49.4426C28.6759 49.6279 28.4897 49.8132 28.3035 49.9985C28.2104 50.0912 28.1483 50.1838 28.0552 50.2765C27.7448 50.6162 27.4655 50.9867 27.1552 51.3882C27.031 51.5426 26.9379 51.697 26.8138 51.8514L26.7517 51.9132C26.6276 52.0985 26.4724 52.2838 26.3483 52.4691C26.2552 52.5926 26.1621 52.7162 26.069 52.8397C26.0379 52.8706 26.0069 52.9014 25.9759 52.9632L25.9138 53.025C25.5724 53.4264 25.231 53.797 24.9207 54.075L24.8586 54.1367C24.8276 54.1676 24.7966 54.1985 24.7655 54.1985C25.231 53.3647 25.6345 52.4691 25.9759 51.6353C26.7517 49.7823 27.7448 48.0838 28.831 46.6014C29.6069 45.5206 30.6931 44.1 31.7483 43.5132C32.7104 44.1617 33.9207 45.5514 35.1931 47.5279C36.4345 49.4117 37.5207 51.1412 38.669 52.9941C38.7 53.025 38.731 53.1176 38.7931 53.2103C39.0724 53.7353 39.3517 54.1676 39.569 54.5073C38.9793 54.1059 38.3586 53.5191 37.8 52.7779C37.6759 52.6235 37.5517 52.4691 37.4276 52.2838L37.3345 52.1912C37.2414 52.0676 37.1483 51.9441 37.0552 51.8514C36.9621 51.7279 36.8379 51.6044 36.7448 51.4809L36.3104 50.9867L36.2793 50.9559L35.9379 51.4191ZM37.3655 22.1735C38.2966 22.0191 39.2276 21.9264 40.1276 21.8956C42.6104 21.8029 44.5966 22.5132 45.9 23.9338C46.831 24.922 47.3897 26.2191 47.5448 27.7632C47.6069 28.4426 47.6069 29.1838 47.5448 29.925C47.4207 31.1294 47.0793 32.4573 46.5517 33.7853C45.7448 35.8235 45.0931 38.047 44.6276 40.3632C43.9138 43.9147 43.6966 47.0956 43.5104 49.6588C43.4172 51.0485 43.3241 52.2529 43.2 53.1176C43.0759 53.797 42.8276 54.322 42.5172 54.6617C42.5172 54.5382 42.5172 54.3838 42.5172 54.2294C42.5172 54.1676 42.5172 54.1059 42.5172 54.0441C42.5172 53.1485 42.4552 52.222 42.4241 51.3573C42.4241 51.0794 42.3931 50.7706 42.3931 50.4926C42.3621 49.597 42.3 48.7015 42.2379 47.8059C42.1448 46.2 42.0207 44.5323 42.0207 42.9264C42.0207 40.4559 42.4552 37.9544 42.8276 36.0706C42.9207 35.6382 43.0138 35.2367 43.1069 34.7735C43.6345 32.55 44.2241 30.0485 42.7035 27.7941C41.6483 26.25 39.7552 25.3853 37.5207 25.4779C36.8379 25.5088 36.1862 25.5706 35.5966 25.6632C35.8138 25.2309 36.031 24.7367 36.3104 24.2426C36.3724 24.1191 36.4345 23.9956 36.4966 23.872C36.869 23.1617 37.2104 22.5132 37.3655 22.1735ZM35.0069 9.82056L37.6448 10.6235L37.2414 11.8897L36.6517 11.7044L34.6345 11.0867L35.0069 9.82056ZM35.4724 12.6309L35.6586 12.6926L33.8897 18.1588L35.4724 12.6309ZM18.8069 23.347C18.869 23.3162 18.9 23.2544 18.931 23.2544L18.9931 23.1926C19.0241 23.1617 19.0862 23.1309 19.1483 23.0691C19.2104 23.0382 19.2414 23.0073 19.3035 22.9764C20.4517 22.2353 22.0035 21.8647 23.9897 21.8647C25.2621 21.8647 26.6897 21.9573 27.7138 22.1426C27.7138 22.5132 27.7138 23.1309 27.6517 23.872C27.6207 24.4279 27.5586 25.0147 27.4655 25.6014C27.2173 25.5706 26.969 25.5706 26.7517 25.5706C25.6035 25.5397 23.9586 25.6323 22.8104 26.4044C22.7483 26.4353 22.7173 26.4662 22.6552 26.497L22.531 26.5897C22.5 26.6206 22.469 26.6206 22.4379 26.6514C22.4069 26.6823 22.3448 26.7132 22.3448 26.7441C20.5138 28.3191 19.9862 31.3147 20.8241 35.422C21.0104 36.3176 21.1655 37.2441 21.2586 38.2014C21.569 40.8264 21.4759 43.3897 21.3517 46.0764C21.3207 46.8794 21.2897 47.6823 21.2586 48.5162C21.2586 48.5779 21.2586 48.6706 21.2586 48.825C21.1655 51.3573 21.1966 53.0559 21.3517 54.1985C21.1035 53.797 20.9483 53.3647 20.8552 53.0559C20.2035 50.7088 19.5517 47.3426 18.8069 43.4206C18.2793 40.7029 17.7207 37.5838 17.0379 34.3412C16.7586 33.075 16.6035 31.9014 16.5414 30.8206C16.4793 29.7088 16.4793 28.6897 16.6035 27.7632C16.8828 25.8176 17.6276 24.3353 18.8069 23.347Z" fill="#475240"/>
<path d="M17.8448 18.9001C18.1862 18.9001 18.4655 18.6221 18.4655 18.2824V14.9162C18.4655 14.5765 18.1862 14.2986 17.8448 14.2986C17.5034 14.2986 17.2241 14.5765 17.2241 14.9162V18.2515C17.2241 18.6221 17.5034 18.9001 17.8448 18.9001Z" fill="#475240"/>
<path d="M9.7138 23.6558H13.0655C13.4069 23.6558 13.6862 23.3779 13.6862 23.0382C13.6862 22.6985 13.4069 22.4205 13.0655 22.4205H9.7138C9.37242 22.4205 9.09311 22.6985 9.09311 23.0382C9.09311 23.3779 9.37242 23.6558 9.7138 23.6558Z" fill="#475240"/>
<path d="M10.6138 16.7073C10.7379 16.8309 10.8931 16.8926 11.0483 16.8926C11.2034 16.8926 11.3586 16.8309 11.4828 16.7073C11.731 16.4603 11.731 16.0897 11.4828 15.8426L10.9862 15.3485C10.7379 15.1014 10.3655 15.1014 10.1172 15.3485C9.86896 15.5956 9.86896 15.9661 10.1172 16.2132L10.6138 16.7073Z" fill="#475240"/>
<path d="M13.8103 19.8882C13.9345 20.0117 14.0896 20.0735 14.2448 20.0735C14.4 20.0735 14.5552 20.0117 14.6793 19.8882C14.9276 19.6411 14.9276 19.2705 14.6793 19.0235L12.9103 17.2632C12.6621 17.0161 12.2896 17.0161 12.0414 17.2632C11.7931 17.5102 11.7931 17.8808 12.0414 18.1279L13.8103 19.8882Z" fill="#475240"/>
<path d="M60.6103 48.9486C60.6414 48.6089 60.3931 48.3 60.0517 48.2692C58.3448 48.1147 56.2655 47.775 53.9069 47.2191C53.5655 47.1265 53.2241 47.3427 53.1621 47.6824C53.069 48.0221 53.2862 48.3618 53.6276 48.4236C56.0483 49.0103 58.1586 49.35 59.9276 49.5045H59.9896C60.331 49.5353 60.5793 49.2883 60.6103 48.9486Z" fill="#475240"/>
<path d="M51.0827 47.7751C51.1448 47.7751 51.2069 47.8059 51.2379 47.8059C51.5172 47.8059 51.7655 47.6206 51.8276 47.3427C51.9207 47.003 51.7345 46.6633 51.3931 46.5706L51.2379 46.5398C50.8965 46.4471 50.5552 46.6324 50.4621 46.9721C50.369 47.3118 50.5552 47.6515 50.8965 47.7442L51.0827 47.7751Z" fill="#475240"/>
<path d="M48.4448 45.7059C48.1655 45.6133 47.9483 45.5515 47.7621 45.4897C47.4207 45.3971 47.0793 45.5515 46.9862 45.8912C46.8931 46.2 47.0483 46.5706 47.3897 46.6633C47.5759 46.725 47.8241 46.7868 48.1034 46.8794C48.1655 46.9103 48.2276 46.9103 48.2897 46.9103C48.5379 46.9103 48.7862 46.7559 48.8793 46.478C48.9414 46.1691 48.7552 45.7986 48.4448 45.7059Z" fill="#475240"/>
<path d="M48.6 52.2838C48.5069 52.6235 48.6931 52.9632 49.0035 53.0558C50.3069 53.4573 51.5793 53.7661 52.8517 53.9514C52.8828 53.9514 52.9138 53.9514 52.9448 53.9514C53.2552 53.9514 53.5035 53.7352 53.5655 53.4264C53.6276 53.0867 53.3793 52.7779 53.0379 52.7161C51.8276 52.5308 50.5862 52.222 49.3448 51.8514C49.0655 51.7588 48.7241 51.9441 48.6 52.2838Z" fill="#475240"/>
<path d="M7.32413 48.2383C7.26206 47.8986 6.92068 47.6824 6.61033 47.7442C5.27585 47.9912 4.03447 48.1765 2.94826 48.2692C2.60688 48.3 2.35861 48.6089 2.38964 48.9486C2.42068 49.2574 2.69999 49.5044 3.01033 49.5044H3.0724C4.18964 49.4118 5.46206 49.2265 6.85861 48.9486C7.16895 48.9177 7.38619 48.578 7.32413 48.2383Z" fill="#475240"/>
<path d="M9.80689 48.2692C9.83792 48.2692 9.86895 48.2692 9.93102 48.2692C9.96206 48.2692 10.769 48.1148 11.9172 47.7751L12.0724 47.7442C12.4138 47.6515 12.6 47.3118 12.5069 46.9721C12.4138 46.6324 12.0724 46.4471 11.731 46.5398L11.5448 46.6015C10.4586 46.9103 9.68275 47.0648 9.68275 47.0648C9.34137 47.1265 9.12413 47.4353 9.1862 47.7751C9.24827 48.053 9.49654 48.2692 9.80689 48.2692Z" fill="#475240"/>
<path d="M14.369 52.2838C14.2759 51.9441 13.9345 51.7897 13.5931 51.8823C12.6621 52.1603 11.4207 52.4691 9.9 52.747C7.9138 53.1176 7.16897 53.1794 7.13793 53.1794C6.79655 53.2103 6.54828 53.4882 6.54828 53.8279C6.57931 54.1676 6.85862 54.4147 7.16897 54.4147H7.2C7.23104 54.4147 8.0069 54.3529 10.0862 53.9514C11.669 53.6426 12.9414 53.3647 13.9345 53.0558C14.2759 52.9323 14.4621 52.5926 14.369 52.2838Z" fill="#475240"/>
<path d="M18.9621 24.8912C18.9 24.9221 18.8379 24.9838 18.7759 25.0147C18.7138 25.0456 18.6517 25.1074 18.6207 25.1382L18.5897 25.1691C18.5276 25.2 18.4655 25.2618 18.4345 25.2927C17.6586 25.9412 17.069 26.775 16.6655 27.7632C16.5414 28.6897 16.5103 29.6779 16.6035 30.8206C16.6655 31.9015 16.8517 33.075 17.1 34.3412C17.7828 37.5838 18.3724 40.6721 18.869 43.4206C19.6138 47.3427 20.2345 50.7088 20.9172 53.0559C21.0103 53.3956 21.1655 53.8279 21.4138 54.1985C21.2586 53.0559 21.2276 51.3574 21.3207 48.825C21.3207 48.7015 21.3207 48.5779 21.3207 48.5162C21.3517 47.7132 21.3828 46.8794 21.4138 46.0765C21.5069 43.3588 21.631 40.8265 21.3207 38.2015C21.2276 37.275 21.0724 36.3485 20.8862 35.4221C20.0483 31.3147 20.5759 28.2882 22.4069 26.7441C22.4379 26.7132 22.469 26.6824 22.5 26.6515C22.531 26.6206 22.5621 26.6206 22.5931 26.5897L22.7172 26.4971C22.7483 26.4662 22.8103 26.4353 22.8724 26.4044C24.0207 25.6324 25.6655 25.5397 26.8138 25.5706C27.0621 25.5706 27.3103 25.6015 27.5276 25.6015C27.6207 25.0147 27.6828 24.4279 27.7138 23.8721C26.4103 23.7485 24.9828 23.6559 24.0207 23.6868C21.9724 23.6868 20.2966 24.0574 18.9621 24.8912Z" fill="#5F6F56"/>
<path d="M36.4034 51.0176L36.4345 51.0485L36.869 51.5426C36.9621 51.6661 37.0862 51.7897 37.1793 51.9132C37.2724 52.0058 37.3655 52.1294 37.4586 52.2529L37.5517 52.3455C37.6759 52.4999 37.8 52.6544 37.9241 52.8397C38.4827 53.5808 39.1034 54.1676 39.6931 54.5691C39.4759 54.1985 39.1965 53.7661 38.9172 53.272C38.8552 53.1485 38.8241 53.0867 38.7931 53.0558C37.6759 51.2029 36.5586 49.4735 35.3172 47.5897C34.0448 45.6132 32.8345 44.1926 31.8724 43.575C30.8172 44.1617 29.7621 45.5823 28.9552 46.6632C27.8379 48.1764 26.8759 49.8749 26.1 51.697C25.7276 52.5308 25.3552 53.3955 24.8896 54.2602C24.9207 54.2294 24.9517 54.1985 24.9828 54.1985L25.0448 54.1367C25.3862 53.8588 25.7276 53.4882 26.0379 53.0867L26.1 53.0249C26.131 52.9941 26.1621 52.9632 26.1931 52.9014C26.2862 52.7779 26.3793 52.6544 26.4724 52.5308C26.6276 52.3455 26.7517 52.1602 26.8759 51.9749L26.9379 51.9132C27.0621 51.7588 27.1552 51.6044 27.2793 51.4499C27.5896 51.0176 27.869 50.6779 28.1793 50.3382C28.2414 50.2455 28.3345 50.1529 28.4276 50.0602C28.6138 49.8749 28.8 49.6588 29.0172 49.5044C29.0793 49.4426 29.1414 49.4117 29.2034 49.3499C29.5448 49.0411 29.9483 48.7632 30.3517 48.5161C30.4138 48.4852 30.5069 48.4235 30.569 48.3926C30.6931 48.3308 30.8172 48.2691 30.9414 48.2073C31.0034 48.1764 31.0965 48.1455 31.1586 48.1147C31.4379 47.9911 31.6552 47.8985 31.9034 47.8058C32.0896 47.7441 32.2759 47.7749 32.431 47.8367C32.5862 47.9294 32.7414 48.022 32.8655 48.1147C33.4241 48.4544 33.9828 48.8249 34.4793 49.2264L34.7586 49.4426L34.7896 49.4735C34.9448 49.597 35.069 49.7205 35.2241 49.8441C35.3483 49.9676 35.4724 50.0911 35.5965 50.1838C35.6586 50.2147 35.7207 50.2764 35.7828 50.3382C35.8759 50.4308 35.969 50.5235 36.0621 50.6161L36.1241 50.6779C36.1552 50.7397 36.2793 50.8632 36.4034 51.0176L35.9379 51.4191L36.4034 51.0176Z" fill="#5F6F56"/>
<path d="M40.1276 23.6868C39.3207 23.7177 37.7069 23.7795 36.4966 23.903C36.4345 24.0265 36.3724 24.1501 36.3104 24.2736C36.0621 24.7986 35.8138 25.2618 35.5966 25.6942C36.1862 25.6015 36.8379 25.5089 37.5207 25.5089C39.7552 25.4471 41.6483 26.2809 42.7035 27.8251C44.2242 30.0486 43.6345 32.5809 43.1069 34.8045C43.0138 35.2677 42.8897 35.6692 42.8276 36.1015C42.4552 37.9854 42.0207 40.4868 42.0207 42.9574C42.0207 44.5633 42.1138 46.2309 42.2379 47.8368C42.3 48.7015 42.3621 49.628 42.3931 50.5236C42.3931 50.8015 42.4241 51.1103 42.4241 51.3883C42.4552 52.253 42.5173 53.1795 42.5173 54.0751C42.5173 54.1059 42.5173 54.1677 42.5173 54.2604C42.5173 54.4148 42.5173 54.5383 42.5173 54.6927C42.8586 54.353 43.1069 53.828 43.2 53.1486C43.3552 52.2839 43.4173 51.0795 43.5104 49.6898C43.6655 47.1265 43.8828 43.9765 44.6276 40.3942C45.0931 38.078 45.7448 35.8545 46.5517 33.8162C47.0793 32.4574 47.4207 31.1604 47.5448 29.9559C47.6379 29.1839 47.6379 28.4736 47.5448 27.7942C46.4276 25.1074 43.8207 23.5633 40.1276 23.6868Z" fill="#5F6F56"/>
<path d="M26.5035 30.6662C26.4104 31.0985 26.3173 31.3147 26.3173 31.3456C26.2241 31.6853 26.4104 32.025 26.7517 32.1177C26.8138 32.1485 26.8759 32.1485 26.9379 32.1485C27.2173 32.1485 27.4655 31.9632 27.5276 31.7162C27.5276 31.7162 27.5897 31.4691 27.7138 31.0059C27.8069 30.6662 27.5897 30.3265 27.2793 30.2647C26.9379 30.1412 26.5966 30.3265 26.5035 30.6662Z" fill="#475240"/>
<path d="M36.6207 11.7044H36.6517L37.2414 11.8897L37.6448 10.5926L35.0069 9.82056L34.6035 11.0867L36.6207 11.7044Z" fill="#5F6F56"/>
<path d="M37.3965 2.62501C37.4586 2.65589 37.5207 2.65589 37.5827 2.65589C37.8621 2.65589 38.1103 2.4706 38.1724 2.22354L38.6069 0.802948C38.7 0.463242 38.5138 0.123537 38.2034 0.0308894C37.8621 -0.0617576 37.5207 0.123537 37.4276 0.43236L36.9621 1.85295C36.869 2.16177 37.0552 2.53236 37.3965 2.62501Z" fill="#475240"/>
<path d="M56.1414 53.2411C55.8931 53.2102 55.6759 53.1485 55.6759 53.1485C55.3345 53.0867 54.9931 53.272 54.931 53.6117C54.869 53.9514 55.0552 54.2603 55.3966 54.3529C55.3966 54.3529 55.6448 54.4147 55.8931 54.4455C55.9242 54.4455 55.9552 54.4455 56.0173 54.4455C56.2966 54.4455 56.5759 54.2294 56.6379 53.9514C56.7 53.6426 56.4828 53.3029 56.1414 53.2411Z" fill="#475240"/>
</g>
<defs>
<clipPath id="clip0_1_117">
<rect width="63" height="63" fill="white"/>
</clipPath>
</defs>
</svg>
