<svg width="56" height="56" viewBox="0 0 56 56" fill="none" xmlns="http://www.w3.org/2000/svg">
<g clip-path="url(#clip0_1_288)">
<path d="M21.2668 39.5456C21.5973 39.5456 21.8677 39.816 21.8677 40.1465C21.8677 43.9927 19.7944 47.328 16.6694 49.1609C16.9699 49.3713 17.3305 49.4915 17.7511 49.4915C17.7812 49.4915 17.8413 49.4915 17.8713 49.4915C18.6225 49.4614 19.4639 49.0407 20.3653 48.2595L20.4254 48.1994C20.816 47.8388 21.2367 47.4181 21.6273 46.9374C21.6874 46.8773 21.7475 46.7871 21.8076 46.727C21.9278 46.5768 22.018 46.4266 22.1382 46.3064C22.2884 46.1261 22.4086 45.9458 22.5288 45.7655L22.6189 45.6453C22.7692 45.435 22.9194 45.2246 23.0696 45.0143C23.3701 44.6237 23.7307 44.1429 24.1213 43.6922C24.2115 43.572 24.3016 43.4819 24.3918 43.3917C24.6021 43.1513 24.8425 42.9109 25.0829 42.7006C25.143 42.6405 25.2031 42.5804 25.2632 42.5504C25.6838 42.1898 26.1346 41.8593 26.6153 41.5588C26.6754 41.5287 26.7656 41.4686 26.8557 41.4085C26.9759 41.3484 27.1261 41.2583 27.2463 41.1982C26.1646 40.6573 24.9627 40.1165 23.5805 39.6357C23.28 39.5155 23.0997 39.185 23.2199 38.8545C23.3401 38.554 23.6706 38.3737 24.0011 38.4939C25.8942 39.185 27.5168 39.9061 28.929 40.7475C29.9206 41.3184 30.822 41.9494 31.6634 42.6405C32.9555 43.7222 34.1273 44.9843 35.4795 46.727C36.5913 48.1994 37.8533 49.1309 38.9651 49.4314C39.5059 48.9206 39.8966 48.1393 40.0768 47.0876C40.5576 44.3532 40.4374 39.0347 41.6093 32.7247C32.2043 34.5576 20.6658 28.3977 16.5192 22.929C13.5745 19.1429 13.0336 14.6357 13.1237 11.3304C13.1237 11.3304 13.1237 11.3304 13.0937 11.3304H13.0636L13.0336 11.3605C12.9735 11.4206 12.9134 11.4506 12.8533 11.5107C10.149 13.7643 9.81846 17.941 10.2992 21.7872C10.5396 21.9374 10.78 22.0876 11.0504 22.1477L11.3209 22.2379C11.7716 22.3581 12.042 22.7788 12.042 23.2295C12.042 23.6802 11.7415 24.1009 11.3209 24.2211L11.0504 24.3412C10.9302 24.3713 10.8401 24.4013 10.7199 24.4614C10.7499 24.5516 10.75 24.6117 10.78 24.7018C11.1406 26.4446 11.4711 28.1273 11.8016 29.7499C16.2487 29.9001 20.0648 32.7847 21.387 37.0516C21.4771 37.3821 21.2968 37.7126 20.9963 37.8028C20.9963 37.8028 20.9963 37.8028 20.9663 37.8028C21.1165 38.3737 21.2067 38.9446 21.2668 39.5456C21.2367 39.5456 21.2367 39.5456 21.2668 39.5456Z" fill="#5F6F56"/>
<path d="M46.8376 18.5121C45.0648 17.9712 43.6826 16.589 43.1417 14.8162L43.0215 14.3955C42.3605 15.8979 41.1586 17.0998 39.6261 17.7008C39.4759 17.7609 39.3256 17.821 39.1453 17.8811L38.6946 18.0313C38.6345 18.0313 38.6345 18.0614 38.6045 18.0914C38.5744 18.1515 38.5744 18.2116 38.6345 18.2717L38.6946 18.3018L39.1453 18.4219C41.0985 19.0229 42.6309 20.5554 43.2319 22.5085L43.3521 22.9592C43.3521 22.9893 43.3821 23.0493 43.4723 23.0493C43.5624 23.0493 43.5924 22.9893 43.5924 22.9592L43.7126 22.5085C44.2535 20.7957 45.5456 19.3534 47.1982 18.6323L46.8376 18.5121Z" fill="#475240"/>
<path d="M3.35813 35.6994C3.47832 35.5191 3.56847 35.3088 3.68866 35.1285C3.86895 34.858 3.77881 34.4975 3.53842 34.3172C3.53842 34.3172 3.53842 34.3172 3.50837 34.3172C3.23794 34.1369 2.84732 34.227 2.66703 34.4975C2.51679 34.7078 2.3966 34.9181 2.2764 35.1285C2.12616 35.429 2.21631 35.7895 2.51679 35.9398C2.51679 35.9398 2.51679 35.9398 2.54684 35.9398C2.63698 35.9698 2.72712 35.9999 2.81727 35.9999C3.05765 35.9999 3.26799 35.9097 3.35813 35.6994Z" fill="#5F6F56"/>
<path d="M16.5492 37.893C16.6994 37.6826 16.7295 37.4422 16.6994 37.2019C16.6694 36.9615 16.5191 36.7511 16.3088 36.6009C16.0985 36.4507 15.8581 36.4206 15.6177 36.4507C15.3773 36.4807 15.167 36.6309 15.0167 36.8413L11.2607 42.31C11.1406 42.4603 10.9603 42.5805 10.78 42.5805C10.5997 42.5805 10.3893 42.4903 10.2992 42.31L7.89536 38.8244C7.74512 38.6141 7.53478 38.4939 7.2944 38.4338C7.05402 38.4038 6.81363 38.4338 6.6033 38.5841C6.39296 38.7343 6.27277 38.9446 6.21267 39.185C6.18262 39.4254 6.21267 39.6658 6.36291 39.8761L10.0288 45.1946C10.2091 45.435 10.4795 45.5853 10.78 45.5853C11.0805 45.5853 11.3809 45.435 11.5312 45.1946L15.1069 39.9663C15.2872 39.6958 15.6778 39.6357 15.9482 39.816L16.6994 38.7343C16.429 38.554 16.3389 38.1634 16.5492 37.893Z" fill="#5F6F56"/>
<path d="M9.00719 45.8559C9.39781 46.4268 10.0589 46.7874 10.75 46.7874C11.4411 46.7874 12.1021 46.4568 12.4928 45.8559L16.0685 40.6576C16.2488 40.3871 16.1887 39.9965 15.9182 39.8162C15.6478 39.6359 15.2572 39.696 15.0769 39.9665L11.5012 45.1648C11.3209 45.4052 11.0505 45.5554 10.75 45.5554C10.4495 45.5554 10.1791 45.4052 9.99878 45.1648L6.33291 39.8463C6.18267 39.6359 6.15263 39.3955 6.18267 39.1552C6.21272 38.9148 6.36296 38.7044 6.5733 38.5542C6.78363 38.404 7.02402 38.3739 7.2644 38.404C7.50479 38.434 7.71512 38.5842 7.86536 38.7946L10.2692 42.2802C10.3894 42.4304 10.5697 42.5506 10.75 42.5506C10.9303 42.5506 11.1406 42.4604 11.2307 42.2802L14.9868 36.8114C15.137 36.6011 15.3473 36.4809 15.5877 36.4208C15.8281 36.3907 16.0685 36.4208 16.2788 36.571C16.4892 36.7213 16.6093 36.9316 16.6694 37.172C16.6995 37.4124 16.6694 37.6527 16.5192 37.8631C16.3389 38.1335 16.399 38.5241 16.6694 38.7044C16.9399 38.8847 17.3305 38.8246 17.5108 38.5542C17.8413 38.0734 17.9615 37.5326 17.8413 36.9616C17.7211 36.3907 17.4206 35.91 16.9699 35.6095C16.4892 35.279 15.9483 35.1588 15.3774 35.279C14.8065 35.3691 14.3257 35.6996 14.0252 36.1503L10.75 40.8979L8.8269 38.1335C8.49637 37.6527 8.0156 37.3523 7.47474 37.2621C6.90383 37.172 6.36296 37.2922 5.88219 37.5927C5.40142 37.9232 5.10094 38.404 5.0108 38.9448C4.92066 39.5157 5.04085 40.0566 5.34133 40.5374L9.00719 45.8559Z" fill="#5F6F56"/>
<path d="M53.8689 32.3643L54.1393 32.2742C54.59 32.154 54.8605 31.7333 54.8605 31.2826C54.8605 30.8319 54.56 30.4112 54.1393 30.291L53.8689 30.2008C52.9975 29.9304 52.3364 29.2694 52.066 28.398L51.9758 28.1275C51.8557 27.6768 51.435 27.4064 50.9843 27.4064C50.5335 27.4064 50.1129 27.7069 49.9927 28.1275L49.9025 28.398C49.6321 29.2694 48.971 29.9304 48.0996 30.2008L47.8292 30.291C47.3785 30.4112 47.1081 30.8319 47.1081 31.2826C47.1081 31.7333 47.4085 32.154 47.8292 32.2742L48.0996 32.3643C48.971 32.6347 49.6321 33.2958 49.9025 34.1672L49.9927 34.4376C50.1129 34.8883 50.5335 35.1588 50.9843 35.1588C51.435 35.1588 51.8557 34.8583 51.9758 34.4376L52.066 34.1672C52.3364 33.2958 53.0275 32.6347 53.8689 32.3643ZM53.298 31.3126C52.2463 31.7032 51.4049 32.5446 51.0143 33.5963C50.6237 32.5446 49.7823 31.7032 48.7307 31.3126C49.7823 30.922 50.6237 30.0806 51.0143 29.029C51.4049 30.0506 52.2463 30.8919 53.298 31.3126Z" fill="#5F6F56"/>
<path d="M7.17425 20.1346L7.11415 20.4051C6.84372 21.2765 6.18266 21.9375 5.31127 22.208L5.04084 22.2981C4.59012 22.4183 4.31969 22.839 4.31969 23.2897C4.31969 23.7404 4.62017 24.1611 5.04084 24.2813L5.31127 24.3414C6.18266 24.6118 6.84372 25.2729 7.11415 26.1443L7.2043 26.4147C7.35454 26.8654 7.74516 27.1358 8.19588 27.1358C8.6466 27.1358 9.06728 26.8354 9.18747 26.4147L9.27761 26.1443C9.36776 25.8438 9.518 25.5733 9.69829 25.3029C10.0288 26.8354 10.3293 28.3077 10.5997 29.7801C8.58651 29.9303 6.69348 30.6815 5.07089 31.9435C4.80045 32.1539 4.77041 32.5144 4.95069 32.7849C4.95069 32.7849 4.95069 32.7849 4.95069 32.8149C5.16103 33.0553 5.52161 33.1154 5.79204 32.9051C7.41463 31.643 9.36776 30.982 11.4411 30.982C15.4976 30.982 19.0432 33.5962 20.2452 37.4423C20.3353 37.7128 20.5757 37.863 20.8161 37.863C20.8762 37.863 20.9363 37.863 20.9663 37.8329C20.9663 37.8329 20.9663 37.8329 20.9964 37.8329C21.3269 37.7428 21.4771 37.4123 21.387 37.0817C20.0649 32.7849 16.2187 29.9003 11.8016 29.75C11.4711 28.1274 11.1406 26.4147 10.78 24.7019C10.75 24.6418 10.75 24.5517 10.7199 24.4616C10.8101 24.4015 10.9303 24.3714 11.0504 24.3414L11.3209 24.2512C11.7716 24.131 12.042 23.7104 12.042 23.2596C12.042 22.8089 11.7416 22.3882 11.3209 22.2681L11.0504 22.1779C10.78 22.0878 10.5396 21.9676 10.2992 21.8173C9.84853 17.9712 10.149 13.7945 12.8533 11.5409C12.9134 11.4808 12.9735 11.4508 13.0336 11.3907L13.0637 11.3606H13.0937C13.0937 11.3606 13.0937 11.3606 13.1238 11.3606C13.1839 11.3306 13.2139 11.3005 13.274 11.2404C13.3341 11.1803 13.4242 11.1503 13.4843 11.0902C14.9867 10.1286 16.8497 9.67792 19.0733 9.76807C22.3485 9.88826 25.143 10.6996 27.1863 11.5109C25.4134 12.4423 24.3918 13.2536 24.3317 13.2837C24.0613 13.494 24.0312 13.8546 24.2415 14.125C24.4519 14.3955 24.8125 14.4255 25.0829 14.2152C25.0829 14.2152 26.4951 13.1034 28.8689 12.0217C30.9122 11.0601 34.1874 9.91831 38.1538 9.76807C41.5192 9.64787 44.1033 10.7597 45.6658 12.9231C46.3269 13.8546 46.7475 14.9363 46.9579 16.1383C45.9963 15.5072 45.2451 14.5457 44.9146 13.4339L44.7644 12.9832C44.5841 12.4123 44.0733 12.0517 43.4723 12.0517C42.8713 12.0517 42.3605 12.4123 42.1802 12.9832L42.06 13.4039C42.03 13.494 41.9999 13.5842 41.9699 13.6743C41.4891 14.9964 40.4374 16.0481 39.1454 16.5589C39.0252 16.619 38.905 16.6491 38.7548 16.6791L38.304 16.7993C37.9735 16.8895 37.673 17.1298 37.5228 17.4303C37.2223 18.0012 37.3725 18.7224 37.8834 19.113L37.9134 19.1431C37.9735 19.2032 38.0636 19.2332 38.1237 19.2632C38.1838 19.2933 38.2139 19.3233 38.274 19.3233H38.304L38.7548 19.4435C40.3473 19.9243 41.5793 21.1563 42.06 22.7488L42.1802 23.1995C42.3605 23.7705 42.8713 24.131 43.4422 24.131C44.0432 24.131 44.554 23.7404 44.7343 23.1995L44.8846 22.7488C45.2151 21.637 45.9663 20.6755 46.9278 20.0445C46.7175 21.2765 46.3569 22.5986 45.8461 23.9507C44.8846 26.3846 44.1634 28.9387 43.5925 31.7332C42.7211 35.97 42.4807 39.726 42.2704 42.7608C42.1502 44.4135 42.06 45.8558 41.8797 46.8774C41.6394 48.2296 41.0084 49.131 40.0769 49.3414C39.9266 49.3714 39.7463 49.4014 39.566 49.4014C39.3557 49.4014 39.1454 49.3714 38.905 49.3113C37.7932 49.0108 36.5312 48.0793 35.4194 46.607C34.0673 44.8642 32.8954 43.5721 31.6033 42.5204C30.762 41.8293 29.8906 41.1983 28.8689 40.6274C27.4567 39.8161 25.8341 39.0649 23.9411 38.3738C23.6406 38.2536 23.28 38.4339 23.1598 38.7344C23.0396 39.0349 23.2199 39.3954 23.5204 39.5156C24.9026 39.9964 26.1045 40.5072 27.1863 41.0781C27.0661 41.1382 26.9158 41.1983 26.7956 41.2885C26.7055 41.3486 26.6153 41.3786 26.5552 41.4387C26.0444 41.7392 25.5937 42.0697 25.2031 42.4303C25.143 42.4904 25.0829 42.5505 25.0228 42.5805C24.7824 42.7909 24.542 43.0313 24.3317 43.2716C24.2415 43.3618 24.1514 43.482 24.0613 43.5721C23.6706 44.0228 23.3101 44.5036 23.0096 44.8942C22.8593 45.1046 22.7091 45.3149 22.5589 45.5252L22.4687 45.6454C22.3485 45.8257 22.1983 46.006 22.0781 46.1863C21.9879 46.3365 21.8677 46.4868 21.7476 46.607C21.6875 46.6971 21.6274 46.7572 21.5673 46.8173C21.1766 47.2981 20.756 47.7488 20.3653 48.0793L20.3052 48.1394C19.4339 48.8906 18.5625 49.3113 17.8113 49.3714C17.7812 49.3714 17.7211 49.3714 17.6911 49.3714C17.2704 49.3714 16.9098 49.2512 16.6093 49.0409C19.7043 47.238 21.8077 43.8726 21.8077 40.0265C21.8077 39.6959 21.5372 39.4255 21.2067 39.4255C21.2067 39.4255 21.2067 39.4255 21.1766 39.4255C20.8461 39.4255 20.6057 39.6959 20.6057 40.0265C20.6057 45.1046 16.4591 49.2512 11.381 49.2512C6.30286 49.2512 2.15623 45.1046 2.15623 40.0265C2.15623 39.095 2.30647 38.1935 2.54685 37.3221C2.63699 37.0216 2.48675 36.6911 2.15623 36.5709C2.15623 36.5709 2.15623 36.5709 2.12618 36.5709C1.8257 36.4808 1.46512 36.6611 1.37498 36.9616C1.0745 37.9531 0.924256 38.9748 0.924256 40.0265C0.924256 44.113 3.29805 47.6587 6.75358 49.3714H4.65021C4.31969 49.3714 4.04925 49.6418 4.04925 49.9724C4.04925 50.3029 4.31969 50.5733 4.65021 50.5733H24.6322C24.9627 50.5733 25.2331 50.3029 25.2331 49.9724C25.2331 49.6418 24.9627 49.3714 24.6322 49.3714H20.7259C20.8762 49.2512 21.0564 49.131 21.2067 48.9808L21.2668 48.9207C21.7175 48.5301 22.1382 48.0793 22.5589 47.5385C22.6189 47.4483 22.679 47.3882 22.7391 47.2981C22.8293 47.2079 22.8894 47.0877 22.9795 46.9976H25.5637C25.8942 46.9976 26.1646 46.7272 26.1646 46.3966C26.1646 46.0661 25.8942 45.7957 25.5637 45.7957H23.8509C23.911 45.7055 23.9711 45.6454 24.0312 45.5553C24.3016 45.1647 24.6622 44.7139 25.0228 44.2933C25.1129 44.2031 25.2031 44.113 25.2932 44.0228C25.5036 43.8125 25.6838 43.6022 25.9242 43.3918C25.9843 43.3618 26.0144 43.3017 26.0745 43.2716C26.435 42.9411 26.8257 42.6707 27.2764 42.4003C27.3365 42.3702 27.3966 42.3101 27.4867 42.2801C27.6069 42.22 27.7271 42.1298 27.8774 42.0697C27.9375 42.0397 28.0276 42.0096 28.0877 41.9495C28.2379 41.8894 28.4182 41.7993 28.5985 41.7392C29.4399 42.25 30.1911 42.7909 30.9122 43.3918C31.7235 44.0829 32.5048 44.8341 33.3161 45.7656H32.1141C31.7836 45.7656 31.5132 46.0361 31.5132 46.3666C31.5132 46.6971 31.7836 46.9676 32.1141 46.9676H34.2776C34.3677 47.0577 34.4278 47.1779 34.518 47.268C35.149 48.1094 35.8401 48.8005 36.5312 49.3414H35.78C35.4495 49.3414 35.179 49.6118 35.179 49.9423C35.179 50.2728 35.4495 50.5433 35.78 50.5433H39.6261C39.6261 50.5433 39.6261 50.5433 39.6562 50.5433C39.6562 50.5433 39.6562 50.5433 39.6862 50.5433H47.0781C47.4086 50.5433 47.679 50.2728 47.679 49.9423C47.679 49.6118 47.4086 49.3414 47.0781 49.3414H42.1802C42.661 48.7404 42.9915 47.9591 43.1718 47.0276C43.1718 47.0276 43.1718 46.9976 43.1718 46.9676H45.0348C45.3653 46.9676 45.6358 46.6971 45.6358 46.3666C45.6358 46.0361 45.3653 45.7656 45.0348 45.7656H43.3221C43.4122 44.8942 43.4723 43.9026 43.5624 42.7909C43.7728 39.8161 44.0132 36.0902 44.8545 31.9435C45.3954 29.2092 46.1165 26.7452 47.048 24.3414C47.7091 22.5986 48.1297 20.9459 48.31 19.3834L48.7307 19.2632C49.3016 19.083 49.6622 18.5721 49.6622 17.9712C49.6622 17.3702 49.3016 16.8594 48.7307 16.7092L48.3401 16.589C48.1598 14.8762 47.6189 13.3438 46.7175 12.0818C44.9446 9.58778 41.9098 8.29571 38.1838 8.4159C34.1874 8.5361 30.8521 9.67792 28.6887 10.6695C26.5252 9.67792 23.1899 8.56614 19.1935 8.4159C16.7295 8.32576 14.6262 8.83658 12.9134 9.94835C12.8233 10.0084 12.7331 10.0685 12.673 10.0986C12.6129 10.1286 12.5529 10.1887 12.4928 10.2188L12.4627 10.2488L12.4327 10.2789L12.4026 10.3089C12.3425 10.369 12.2824 10.3991 12.1923 10.4592C9.96872 12.2921 8.91704 15.4171 9.03723 19.5637C8.85694 19.3534 8.58651 19.2332 8.28603 19.2332C7.71512 19.3834 7.32449 19.6839 7.17425 20.1346ZM48.4002 18.1214C48.4002 18.2116 48.3401 18.2416 48.31 18.2416L47.8593 18.3919C47.7692 18.4219 47.649 18.452 47.5588 18.512C47.4687 18.5421 47.3785 18.6022 47.2584 18.6322C45.6057 19.3534 44.3136 20.7657 43.7728 22.5084L43.6526 22.9592C43.6526 22.9892 43.6225 23.0493 43.5324 23.0493C43.4422 23.0493 43.4122 22.9892 43.4122 22.9592L43.292 22.5084C42.691 20.5553 41.1586 19.0229 39.2055 18.4219L38.7548 18.3017L38.6947 18.2717C38.6646 18.2416 38.6646 18.1515 38.6646 18.0914C38.6646 18.0613 38.6947 18.0613 38.7548 18.0313L39.2055 17.881C39.3858 17.8209 39.566 17.7608 39.6862 17.7008C41.2187 17.0998 42.4206 15.8979 43.0817 14.3955C43.1117 14.3053 43.1718 14.2152 43.2019 14.125C43.2319 14.0048 43.262 13.9147 43.3221 13.7945L43.4422 13.3438C43.4422 13.3137 43.4723 13.2536 43.5624 13.2536C43.6526 13.2536 43.6826 13.3137 43.6826 13.3438L43.8329 13.7945C44.4338 15.7476 45.9663 17.2801 47.9194 17.881L48.3701 18.0012C48.3401 18.0012 48.4002 18.0313 48.4002 18.1214ZM10.4795 23.2596C9.42785 23.6503 8.58651 24.4916 8.19588 25.5433C7.80526 24.4916 6.96391 23.6503 5.91223 23.2596C6.96391 22.869 7.80526 22.0277 8.19588 20.976C8.58651 22.0277 9.39781 22.869 10.4795 23.2596Z" fill="#5F6F56"/>
<path d="M38.0035 53.6683C38.0035 53.3378 37.7331 53.0674 37.4026 53.0674H18.4422C18.1117 53.0674 17.8413 53.3378 17.8413 53.6683C17.8413 53.9989 18.1117 54.2693 18.4422 54.2693H37.4026C37.7331 54.2693 38.0035 53.9989 38.0035 53.6683Z" fill="#5F6F56"/>
<path d="M14.1454 54.2693C14.4759 54.2693 14.7463 53.9989 14.7463 53.6683C14.7463 53.3378 14.4759 53.0674 14.1454 53.0674H13.1237C12.7932 53.0674 12.5228 53.3378 12.5228 53.6683C12.5228 53.9989 12.7932 54.2693 13.1237 54.2693H14.1454Z" fill="#5F6F56"/>
<path d="M28.8088 50.6936C29.1394 50.6936 29.4098 50.4232 29.4098 50.0927C29.4098 49.7621 29.1394 49.4917 28.8088 49.4917H27.3966C27.066 49.4917 26.7956 49.7621 26.7956 50.0927C26.7956 50.4232 27.066 50.6936 27.3966 50.6936H28.8088Z" fill="#5F6F56"/>
<path d="M30.8821 4.96035C30.8821 5.6214 31.423 6.16227 32.084 6.16227C32.7451 6.16227 33.286 5.6214 33.286 4.96035C33.286 4.29929 32.7451 3.75842 32.084 3.75842C31.423 3.75842 30.8821 4.29929 30.8821 4.96035ZM32.3545 4.96035C32.3545 5.11059 32.2343 5.26083 32.054 5.26083C31.8737 5.26083 31.7535 5.14063 31.7535 4.96035C31.7535 4.78006 31.8737 4.65986 32.054 4.65986C32.2343 4.65986 32.3545 4.8101 32.3545 4.96035Z" fill="#475240"/>
<path d="M52.1862 41.0181C52.1862 40.357 51.6454 39.8162 50.9843 39.8162C50.3232 39.8162 49.7824 40.357 49.7824 41.0181C49.7824 41.6791 50.3232 42.22 50.9843 42.22C51.6454 42.22 52.1862 41.6791 52.1862 41.0181ZM50.7139 41.0181C50.7139 40.8678 50.8341 40.7176 51.0143 40.7176C51.1946 40.7176 51.3148 40.8378 51.3148 41.0181C51.3148 41.1984 51.1946 41.3186 51.0143 41.3186C50.8341 41.3186 50.7139 41.1683 50.7139 41.0181Z" fill="#475240"/>
<path d="M3.20791 53.2177C2.54685 53.2177 2.00599 53.7585 2.00599 54.4196C2.00599 55.0806 2.54685 55.6215 3.20791 55.6215C3.86896 55.6215 4.40983 55.0806 4.40983 54.4196C4.40983 53.7585 3.86896 53.2177 3.20791 53.2177ZM3.20791 54.7201C3.05767 54.7201 2.90743 54.5999 2.90743 54.4196C2.90743 54.2393 3.02762 54.1191 3.20791 54.1191C3.3882 54.1191 3.50839 54.2393 3.50839 54.4196C3.50839 54.5999 3.35815 54.7201 3.20791 54.7201Z" fill="#475240"/>
<path d="M49.0011 3.57818C49.9927 3.57818 50.804 2.76688 50.804 1.77529C50.804 0.783709 49.9927 -0.0275879 49.0011 -0.0275879C48.0095 -0.0275879 47.1982 0.783709 47.1982 1.77529C47.1982 2.76688 48.0095 3.57818 49.0011 3.57818ZM49.0011 0.903902C49.4819 0.903902 49.9025 1.29453 49.9025 1.80534C49.9025 2.31616 49.5119 2.70678 49.0011 2.70678C48.5203 2.70678 48.0997 2.31616 48.0997 1.80534C48.0997 1.29453 48.5203 0.903902 49.0011 0.903902Z" fill="#475240"/>
<path d="M-2.38104 9.46768C-2.2909 9.55782 -2.1707 9.61792 -2.05051 9.61792C-1.93032 9.61792 -1.81013 9.58787 -1.71998 9.49773L-1.23921 9.01696L-0.758445 9.49773C-0.668301 9.55782 -0.548109 9.61792 -0.427916 9.61792C-0.307724 9.61792 -0.187532 9.58787 -0.0973878 9.49773C0.0829003 9.31744 0.0829003 9.04701 -0.0973878 8.86672L-0.578157 8.38595L-0.0973878 7.90518C0.0829003 7.72489 0.0829003 7.45446 -0.0973878 7.27417C-0.277676 7.09388 -0.548109 7.09388 -0.728397 7.27417L-1.20917 7.75494L-1.71998 7.21407C-1.90027 7.03379 -2.20075 7.03379 -2.38104 7.21407C-2.56133 7.39436 -2.56133 7.66479 -2.38104 7.84508L-1.90027 8.32585L-2.38104 8.80662C-2.53128 9.01696 -2.53128 9.28739 -2.38104 9.46768Z" fill="#475240"/>
<path d="M58.3761 18.8726C58.1958 18.6924 57.9254 18.6924 57.7451 18.8726L57.2643 19.3534L56.7836 18.8726C56.6033 18.6924 56.3328 18.6924 56.1525 18.8726C55.9723 19.0529 55.9723 19.3234 56.1525 19.5037L56.6333 19.9844L56.1525 20.4652C55.9723 20.6455 55.9723 20.9159 56.1525 21.0962C56.2427 21.1863 56.3629 21.2164 56.4831 21.2164C56.6033 21.2164 56.7235 21.1863 56.8136 21.0962L57.2944 20.6154L57.7751 21.0962C57.8653 21.1863 57.9855 21.2164 58.1057 21.2164C58.2259 21.2164 58.3461 21.1863 58.4362 21.0962C58.6165 20.9159 58.6165 20.6455 58.4362 20.4652L57.9554 19.9844L58.4362 19.5037C58.5264 19.3234 58.5264 19.0529 58.3761 18.8726Z" fill="#475240"/>
<path d="M28.5083 58.1755C28.5985 58.2657 28.7187 58.2957 28.8389 58.2957C28.959 58.2957 29.0792 58.2657 29.1694 58.1755L29.6501 57.6948L30.1309 58.1755C30.2211 58.2657 30.3413 58.2957 30.4614 58.2957C30.5816 58.2957 30.7018 58.2657 30.792 58.1755C30.9723 57.9953 30.9723 57.7248 30.792 57.5445L30.3112 57.0638L30.792 56.583C30.9723 56.4027 30.9723 56.1323 30.792 55.952C30.6117 55.7717 30.3413 55.7717 30.161 55.952L29.6802 56.4328L29.1994 55.952C29.0191 55.7717 28.7487 55.7717 28.5684 55.952C28.3881 56.1323 28.3881 56.4027 28.5684 56.583L29.0492 57.0638L28.5684 57.5445C28.328 57.7248 28.328 58.0253 28.5083 58.1755Z" fill="#475240"/>
</g>
<defs>
<clipPath id="clip0_1_288">
<rect width="56" height="56" fill="white"/>
</clipPath>
</defs>
</svg>
