<svg width="61" height="61" viewBox="0 0 61 61" fill="none" xmlns="http://www.w3.org/2000/svg">
<g clip-path="url(#clip0_1_315)">
<path d="M9.25515 23.3483C12.1699 23.3483 14.5138 25.632 14.6039 28.5468L14.6941 32.1226L14.7842 30.2596C14.9645 26.0827 18.3901 22.8074 22.567 22.8074C24.5803 22.8074 26.5034 23.5887 27.9458 24.9709C29.4182 26.3532 30.2596 28.2463 30.3497 30.2596L30.4098 31.8823L30.4699 30.2596C30.5601 28.2463 31.4015 26.3532 32.8739 24.9709C34.3463 23.5887 36.2394 22.8074 38.2527 22.8074C42.4295 22.8074 45.8551 26.0827 46.0354 30.2596L46.1256 32.1226L46.2758 28.5468C46.366 25.632 48.7098 23.3483 51.6246 23.3483C52.2857 23.3483 52.9167 23.4685 53.5177 23.7089C54.0886 23.9192 54.6295 24.2497 55.1103 24.6704L57.1537 22.1763C57.0635 22.0862 56.9734 21.966 56.9433 21.8458C56.8532 21.365 56.733 20.9143 56.5827 20.4635C56.4625 20.2231 56.3123 19.9828 56.1921 19.7724C55.5911 18.7808 54.4793 18.2399 53.3374 18.4202C53.2473 18.4202 53.1571 18.4502 53.067 18.4502C53.0369 18.7207 52.8266 18.9611 52.5561 19.0212C52.2556 19.0512 51.9551 19.1113 51.6547 19.1414H51.5645C51.2941 19.1414 51.0837 18.9611 50.9936 18.7207C50.4827 18.7808 49.9719 18.8409 49.431 18.901C49.401 19.1714 49.1906 19.4118 48.8901 19.4419C45.9753 19.8025 43.1507 20.0729 40.4162 20.2532H40.3862C40.1157 20.2532 39.8753 20.0729 39.8152 19.8025C36.7202 20.0128 33.565 20.133 30.4098 20.133C25.9625 20.133 21.4551 19.8626 17.2182 19.502C17.1581 19.7724 16.9177 19.9527 16.6473 19.9527H16.5872C15.0547 19.8025 13.4921 19.6522 11.9295 19.4419C11.629 19.4118 11.4187 19.1714 11.3886 18.901C10.0364 18.7507 8.71426 18.5704 7.48224 18.3901C6.34037 18.2399 5.1985 18.7507 4.62756 19.7424C4.50736 19.9527 4.38717 20.1931 4.23692 20.4335C4.08667 20.8542 3.96648 21.335 3.87633 21.8158C3.84628 21.966 3.75613 22.0862 3.66599 22.1463L5.70933 24.6404C6.19012 24.2497 6.70096 23.9192 7.30195 23.6788C7.96303 23.4685 8.59406 23.3483 9.25515 23.3483Z" fill="#5F6F56"/>
<path d="M52.4059 17.7891C52.1054 17.8192 51.8049 17.8793 51.5044 17.9093C51.1739 17.9394 50.9335 18.2699 50.9936 18.5704C50.9936 18.6005 50.9936 18.6606 51.0236 18.6906C51.1138 18.931 51.3241 19.1113 51.5946 19.1113H51.6847C51.9852 19.0813 52.2857 19.0212 52.5862 18.9911C52.8867 18.9611 53.097 18.7207 53.097 18.4202C53.097 18.3901 53.097 18.33 53.097 18.3C53.0369 17.9694 52.7364 17.729 52.4059 17.7891Z" fill="#546C46"/>
<path d="M48.8 18.2398C45.9153 18.6004 43.0906 18.8709 40.3862 19.0512C40.0557 19.0812 39.8153 19.3517 39.8453 19.6822C39.8453 19.7123 39.8453 19.7423 39.8754 19.7724C39.9355 20.0428 40.1759 20.2231 40.4463 20.2231H40.4763C43.1808 20.0128 46.0354 19.7423 48.9502 19.4118C49.2507 19.3817 49.4611 19.1413 49.4911 18.8709C49.4911 18.8408 49.4911 18.8108 49.4911 18.7507C49.431 18.4502 49.1305 18.2098 48.8 18.2398Z" fill="#546C46"/>
<path d="M16.7374 18.7507C15.235 18.6005 13.6724 18.4503 12.1098 18.2399C11.7793 18.2099 11.4788 18.4202 11.4488 18.7507C11.4488 18.7808 11.4488 18.8409 11.4488 18.8709C11.4788 19.1414 11.6892 19.3818 11.9896 19.4118C13.5522 19.5921 15.1448 19.7724 16.6473 19.9227H16.7074C16.9778 19.9227 17.2182 19.7424 17.2783 19.4719C17.2783 19.4419 17.3084 19.4118 17.3084 19.3818C17.3084 19.0813 17.068 18.7808 16.7374 18.7507Z" fill="#546C46"/>
<path d="M39.9655 32.6936H39.8754V35.6384H39.9655C40.3562 35.6384 40.6867 35.3079 40.6867 34.9172V33.4148C40.6867 33.0241 40.3562 32.6936 39.9655 32.6936Z" fill="#475240"/>
<path d="M36.6601 35.6384H36.7502V32.6936H36.6601C36.2694 32.6936 35.9389 33.0241 35.9389 33.4148V34.9172C35.9389 35.3079 36.2394 35.6384 36.6601 35.6384Z" fill="#475240"/>
<path d="M38.7034 34.767H37.9522V35.6384H38.7034V34.767Z" fill="#475240"/>
<path d="M38.7034 32.6936H37.9522V33.565H38.7034V32.6936Z" fill="#475240"/>
<path d="M51.7148 31.8221V33.3246C51.7148 33.7152 52.0453 34.0458 52.4359 34.0458H52.5261V31.101H52.4359C52.0153 31.101 51.7148 31.4315 51.7148 31.8221Z" fill="#475240"/>
<path d="M53.7281 31.9724H54.7197L54.93 31.101H53.7281V31.9724Z" fill="#475240"/>
<path d="M53.7281 33.1744V34.0459H54.0887C54.1488 34.0459 54.1788 34.0459 54.2389 34.0759L54.4493 33.1744H53.7281Z" fill="#475240"/>
<path d="M53.7281 34.0458V33.1744H54.4492H55.0803C55.4108 33.1744 55.6813 32.9039 55.6813 32.5734C55.6813 32.2428 55.4108 31.9724 55.0803 31.9724H54.7197H53.7281V31.101H54.93H55.0803C55.4108 31.101 55.6813 30.8305 55.6813 30.5C55.6813 30.1694 55.4108 29.899 55.0803 29.899H52.4359C51.3842 29.899 50.5128 30.7704 50.5128 31.8222V32.0926C49.4911 32.2428 48.4394 32.363 47.3877 32.5133L47.5079 28.5768C47.568 26.3231 49.401 24.5502 51.6547 24.5502C52.1655 24.5502 52.6463 24.6404 53.1271 24.8207C53.5778 25.001 53.9985 25.2414 54.3591 25.5719C54.5995 25.7822 54.9901 25.7522 55.2005 25.5118C55.4108 25.2714 55.3808 24.8808 55.1404 24.6704C54.6596 24.2798 54.1487 23.9492 53.5478 23.7089C52.9468 23.4685 52.3157 23.3483 51.6547 23.3483C48.7399 23.3483 46.396 25.632 46.3059 28.5468L46.2157 32.1226L46.1256 30.2596C45.9453 26.0827 42.5197 22.8074 38.3428 22.8074C36.3295 22.8074 34.4064 23.5887 32.964 24.9709C31.4916 26.3532 30.6502 28.2463 30.5601 30.2596L30.5 31.8822L30.4399 30.2596C30.3497 28.2463 29.5084 26.3532 28.0359 24.9709C26.5635 23.5887 24.6704 22.8074 22.6571 22.8074C18.4803 22.8074 15.0547 26.0827 14.8744 30.2596L14.7842 32.1226L14.6039 28.5468C14.5138 25.632 12.1699 23.3483 9.25515 23.3483C8.59406 23.3483 7.96303 23.4685 7.36204 23.7089C6.76106 23.9192 6.25022 24.2497 5.76943 24.6704C5.52904 24.8808 5.49899 25.2714 5.70933 25.5118C5.91968 25.7522 6.31032 25.7822 6.55071 25.5719C6.9113 25.2414 7.33199 25.001 7.78273 24.8207C8.23347 24.6404 8.74431 24.5502 9.25515 24.5502C11.5088 24.5502 13.3418 26.3231 13.4019 28.5768L13.5221 32.5133H13.4921C12.4704 32.3931 11.4487 32.2428 10.397 32.1226V31.8522C10.397 30.8005 9.52559 29.929 8.47387 29.929H5.82953C5.49899 29.929 5.22855 30.1995 5.22855 30.53C5.22855 30.8606 5.49899 31.131 5.82953 31.131H5.97978H7.18175V32.0024H6.19012H5.82953C5.49899 32.0024 5.22855 32.2729 5.22855 32.6034C5.22855 32.934 5.49899 33.2044 5.82953 33.2044H6.46057H7.18175V34.0758H6.82116C6.76106 34.0758 6.73101 34.0758 6.67091 34.1059C6.40047 34.166 6.22017 34.4064 6.22017 34.6768C6.22017 35.0074 6.49062 35.2778 6.82116 35.2778H7.78273H8.44382C9.49554 35.2778 10.367 34.4064 10.367 33.3547C11.3586 33.5049 12.3502 33.6251 13.3118 33.7453C13.3719 33.7453 13.462 33.7754 13.5221 33.7754L13.6123 36.6C13.6123 37.0507 13.462 37.4414 13.1616 37.7719C12.8611 38.0724 12.4404 38.2527 12.0197 38.2527H9.2852C8.95465 38.2527 8.68421 38.5231 8.68421 38.8537C8.68421 39.1842 8.95465 39.4547 9.2852 39.4547H12.0197C12.7709 39.4547 13.4921 39.1542 14.033 38.6133C14.1832 38.463 14.3335 38.2827 14.4236 38.0724L14.3936 38.8837C14.3335 40.0857 14.7542 41.2276 15.5955 42.099C16.4369 42.9704 17.5487 43.4512 18.7507 43.4512H26.3532C27.5551 43.4512 28.697 42.9704 29.5083 42.099C29.899 41.6783 30.1995 41.2276 30.4098 40.7167C30.6202 41.2276 30.9207 41.6783 31.3113 42.099C32.1527 42.9704 33.2645 43.4512 34.4665 43.4512H42.099C43.301 43.4512 44.4428 42.9704 45.2542 42.099C46.0955 41.2276 46.5162 40.0857 46.4561 38.8837L46.4261 38.0724C46.5463 38.2527 46.6665 38.433 46.8468 38.6133C47.3877 39.1542 48.0788 39.4547 48.8601 39.4547H51.5645C51.8951 39.4547 52.1655 39.1842 52.1655 38.8537C52.1655 38.5231 51.8951 38.2527 51.5645 38.2527H48.8601C48.4093 38.2527 48.0187 38.0724 47.7182 37.7719C47.4177 37.4714 47.2675 37.0507 47.2675 36.6L47.3576 33.7754C48.4093 33.6552 49.4611 33.5049 50.5128 33.3547C50.5128 34.4064 51.3842 35.2778 52.4359 35.2778H53.097H54.0586C54.3891 35.2778 54.6596 35.0074 54.6596 34.6768C54.6596 34.4064 54.4492 34.166 54.2088 34.1059C54.1788 34.1059 54.1187 34.0758 54.0586 34.0758H53.7281V34.0458ZM8.38372 31.101H8.47387C8.86451 31.101 9.19505 31.4315 9.19505 31.8222V33.3246C9.19505 33.7153 8.86451 34.0458 8.47387 34.0458H8.38372V31.101ZM41.8586 33.1143C41.7084 32.1827 40.9271 31.4916 39.9655 31.4916H36.6601C35.6083 31.4916 34.7369 32.363 34.7369 33.4148V33.6251C33.6251 33.6852 32.5734 33.7153 31.5817 33.7153L31.732 30.3197C31.8221 28.6069 32.5433 27.0143 33.7753 25.8423C35.0074 24.6704 36.63 24.0093 38.3428 24.0093C41.8886 24.0093 44.7734 26.7739 44.9236 30.3197L45.0438 32.7837C43.932 32.9039 42.8803 33.0241 41.8586 33.1143ZM40.6867 33.4148V34.9172C40.6867 35.3079 40.3561 35.6384 39.9655 35.6384H39.8753V32.6936H39.9655C40.3561 32.6936 40.6867 33.0241 40.6867 33.4148ZM35.9389 33.4148C35.9389 33.0241 36.2694 32.6936 36.6601 32.6936H36.7502V35.6384H36.6601C36.2694 35.6384 35.9389 35.3079 35.9389 34.9172V33.4148ZM38.6734 33.565H37.9221V32.6936H38.6734V33.565ZM37.9522 34.767H38.7034V35.6384H37.9522V34.767ZM20.1931 33.4148C20.1931 33.0241 20.5236 32.6936 20.9143 32.6936H21.0044V35.6384H20.9143C20.5236 35.6384 20.1931 35.3079 20.1931 34.9172V33.4148ZM22.9576 33.565H22.2064V32.6936H22.9576V33.565ZM22.2064 34.767H22.9576V35.6384H22.2064V34.767ZM24.1596 32.6936H24.2497C24.6404 32.6936 24.9709 33.0241 24.9709 33.4148V34.9172C24.9709 35.3079 24.6404 35.6384 24.2497 35.6384H24.1596V32.6936ZM24.2497 31.4916H20.9443C19.9827 31.4916 19.1714 32.2128 19.0512 33.1143C18.0295 33.0241 16.9778 32.9039 15.896 32.7837L16.0162 30.3197C16.1665 26.7739 19.0813 24.0093 22.597 24.0093C24.3098 24.0093 25.9325 24.6704 27.1645 25.8423C28.3965 27.0143 29.1177 28.6069 29.2079 30.3197L29.3581 33.7153C28.3665 33.7153 27.3148 33.6552 26.2029 33.6251V33.4148C26.1729 32.363 25.3015 31.4916 24.2497 31.4916ZM28.697 41.2576C28.096 41.8887 27.2847 42.2492 26.3832 42.2492H18.7808C17.9093 42.2492 17.098 41.8887 16.497 41.2576C15.896 40.6266 15.5655 39.7852 15.6256 38.9138L15.8359 34.0157C16.7975 34.1359 17.8793 34.2261 19.0212 34.3463V34.9473C19.0212 35.999 19.8926 36.8704 20.9443 36.8704H24.2497C25.3015 36.8704 26.1729 35.999 26.1729 34.9473V34.8571C27.2547 34.9172 28.3364 34.9473 29.3882 34.9473L29.5684 38.9438C29.5985 39.7852 29.298 40.6266 28.697 41.2576ZM45.2842 38.9138C45.3143 39.7852 45.0138 40.6266 44.4128 41.2576C43.8118 41.8887 43.0005 42.2492 42.129 42.2492H34.4965C33.6251 42.2492 32.8138 41.8887 32.1827 41.2576C31.5517 40.6266 31.2512 39.7852 31.3113 38.9138L31.4916 34.9172C32.5133 34.9172 33.595 34.8872 34.7069 34.8271V34.9172C34.7069 35.9689 35.5783 36.8404 36.63 36.8404H39.9354C40.9872 36.8404 41.8586 35.9689 41.8586 34.9172V34.3162C42.8803 34.2261 43.962 34.1059 45.0438 33.9857L45.2842 38.9138ZM52.5261 34.0458H52.4359C52.0453 34.0458 51.7148 33.7153 51.7148 33.3246V31.8222C51.7148 31.4315 52.0453 31.101 52.4359 31.101H52.5261V34.0458Z" fill="black"/>
<path d="M9.19506 33.3246V31.8221C9.19506 31.4315 8.86452 31.101 8.47388 31.101H8.38373V34.0458H8.47388C8.86452 34.0458 9.19506 33.7152 9.19506 33.3246Z" fill="#475240"/>
<path d="M7.18177 31.101H5.9798L6.16009 31.9724H7.18177V31.101Z" fill="#475240"/>
<path d="M7.18175 34.0459V33.1744H6.46057L6.67092 34.0759C6.70097 34.0759 6.76106 34.0459 6.82116 34.0459H7.18175Z" fill="#475240"/>
<path d="M22.9576 34.767H22.2064V35.6384H22.9576V34.767Z" fill="#475240"/>
<path d="M20.9143 35.6384H21.0044V32.6936H20.9143C20.5236 32.6936 20.1931 33.0241 20.1931 33.4148V34.9172C20.1931 35.3079 20.5236 35.6384 20.9143 35.6384Z" fill="#475240"/>
<path d="M24.9709 34.9172V33.4148C24.9709 33.0241 24.6404 32.6936 24.2498 32.6936H24.1596V35.6384H24.2498C24.6404 35.6384 24.9709 35.3079 24.9709 34.9172Z" fill="#475240"/>
<path d="M22.9576 32.6936H22.2064V33.565H22.9576V32.6936Z" fill="#475240"/>
<path d="M3.90641 21.8157C3.99656 21.3349 4.11675 20.8842 4.267 20.4334C4.65764 19.2315 5.13843 18.2398 5.55912 17.5487C6.00986 16.7674 6.88128 16.3768 7.78276 16.497C16.0764 17.6689 23.7089 18.2398 30.4399 18.2398C37.1709 18.2398 44.8034 17.6389 53.097 16.497C53.9985 16.3768 54.87 16.7975 55.3207 17.5487C55.7113 18.2398 56.2222 19.2014 56.6128 20.4334C56.7631 20.8541 56.8833 21.3349 56.9734 21.8157C57.0035 21.966 57.0635 22.0861 57.1837 22.1462C57.3039 22.2364 57.4241 22.2965 57.5744 22.2965C57.6044 22.2965 57.6645 22.2965 57.6946 22.2965C58.0251 22.2364 58.2355 21.9059 58.1754 21.5753C57.7547 19.562 56.9734 17.9694 56.4025 16.9778C55.7113 15.7758 54.3591 15.1448 52.9768 15.3251C44.7434 16.4669 37.1709 17.0679 30.47 17.0679C23.799 17.0679 16.2266 16.4669 7.96306 15.3251C6.58079 15.1448 5.22857 15.7758 4.53744 16.9778C3.93646 17.9694 3.15518 19.5921 2.76454 21.5753C2.70444 21.9059 2.91478 22.2063 3.24532 22.2965C3.42562 22.3265 3.60591 22.2664 3.75616 22.1763C3.81626 22.0561 3.87636 21.966 3.90641 21.8157Z" fill="#546C46"/>
<path d="M14.2133 2.40394C14.8744 2.40394 15.4153 1.86305 15.4153 1.20197C15.4153 0.540887 14.8744 0 14.2133 0C13.5522 0 13.0113 0.540887 13.0113 1.20197C13.0113 1.86305 13.5522 2.40394 14.2133 2.40394ZM14.2133 0.901478C14.3635 0.901478 14.5138 1.02167 14.5138 1.20197C14.5138 1.38227 14.3936 1.50246 14.2133 1.50246C14.033 1.50246 13.9128 1.38227 13.9128 1.20197C13.9128 1.02167 14.063 0.901478 14.2133 0.901478Z" fill="#5F6F56"/>
<path d="M56.5527 41.7985C57.2138 41.7985 57.7547 41.2576 57.7547 40.5965C57.7547 39.9354 57.2138 39.3945 56.5527 39.3945C55.8916 39.3945 55.3507 39.9354 55.3507 40.5965C55.3507 41.2576 55.8916 41.7985 56.5527 41.7985ZM56.5527 40.296C56.703 40.296 56.8532 40.4162 56.8532 40.5965C56.8532 40.7768 56.733 40.897 56.5527 40.897C56.4025 40.897 56.2522 40.7768 56.2522 40.5965C56.2522 40.4162 56.4025 40.296 56.5527 40.296Z" fill="#5F6F56"/>
<path d="M11.1783 46.5162C11.8394 46.5162 12.3803 45.9754 12.3803 45.3143C12.3803 44.6532 11.8394 44.1123 11.1783 44.1123C10.5172 44.1123 9.97635 44.6532 9.97635 45.3143C9.97635 45.9754 10.5172 46.5162 11.1783 46.5162ZM11.1783 45.0138C11.3286 45.0138 11.4788 45.134 11.4788 45.3143C11.4788 45.4645 11.3586 45.6148 11.1783 45.6148C10.998 45.6148 10.8778 45.4946 10.8778 45.3143C10.8778 45.134 11.0281 45.0138 11.1783 45.0138Z" fill="#5F6F56"/>
<path d="M59.197 51.0837C58.2054 51.0837 57.3941 51.8951 57.3941 52.8867C57.3941 53.8783 58.2054 54.6897 59.197 54.6897C60.1887 54.6897 61 53.8783 61 52.8867C61 51.8951 60.1887 51.0837 59.197 51.0837ZM59.197 53.7581C58.7163 53.7581 58.2956 53.3675 58.2956 52.8566C58.2956 52.3759 58.6862 51.9552 59.197 51.9552C59.6778 51.9552 60.0985 52.3458 60.0985 52.8566C60.0985 53.3675 59.7079 53.7581 59.197 53.7581Z" fill="#5F6F56"/>
<path d="M5.82954 44.6832C4.83791 44.6832 4.02658 45.4946 4.02658 46.4862C4.02658 47.4778 4.83791 48.2891 5.82954 48.2891C6.82116 48.2891 7.63249 47.4778 7.63249 46.4862C7.63249 45.4645 6.82116 44.6832 5.82954 44.6832ZM5.82954 47.3576C5.34875 47.3576 4.92806 46.967 4.92806 46.4561C4.92806 45.9753 5.3187 45.5547 5.82954 45.5547C6.31032 45.5547 6.73101 45.9453 6.73101 46.4561C6.73101 46.9369 6.31032 47.3576 5.82954 47.3576Z" fill="#5F6F56"/>
<path d="M3.57585 11.2384C3.57585 10.2468 2.76452 9.43542 1.7729 9.43542C0.78127 9.43542 -0.0300598 10.2468 -0.0300598 11.2384C-0.0300598 12.23 0.78127 13.0413 1.7729 13.0413C2.76452 13.0413 3.57585 12.23 3.57585 11.2384ZM1.80295 12.1399C1.32216 12.1399 0.901467 11.7492 0.901467 11.2384C0.901467 10.7576 1.29211 10.3369 1.80295 10.3369C2.28373 10.3369 2.70442 10.7275 2.70442 11.2384C2.67437 11.7492 2.28373 12.1399 1.80295 12.1399Z" fill="#5F6F56"/>
<path d="M9.58569 59.4074C9.58569 59.6478 9.79604 59.8582 10.0364 59.8582H10.7276V60.5493C10.7276 60.7897 10.9379 61 11.1783 61C11.4187 61 11.629 60.7897 11.629 60.5493V59.8582H12.3202C12.5606 59.8582 12.7709 59.6478 12.7709 59.4074C12.7709 59.167 12.5606 58.9567 12.3202 58.9567H11.629V58.2656C11.629 58.0252 11.4187 57.8148 11.1783 57.8148C10.9379 57.8148 10.7276 58.0252 10.7276 58.2656V58.9567H10.0364C9.79604 58.9567 9.58569 59.167 9.58569 59.4074Z" fill="#5F6F56"/>
<path d="M43.5714 51.264C43.331 51.264 43.1207 51.4744 43.1207 51.7148V52.4059H42.4296C42.1892 52.4059 41.9788 52.6163 41.9788 52.8566C41.9788 53.097 42.1892 53.3074 42.4296 53.3074H43.1207V53.9985C43.1207 54.2389 43.331 54.4493 43.5714 54.4493C43.8118 54.4493 44.0222 54.2389 44.0222 53.9985V53.3074H44.7133C44.9537 53.3074 45.164 53.097 45.164 52.8566C45.164 52.6163 44.9537 52.4059 44.7133 52.4059H44.0222V51.7148C44.0222 51.4744 43.8419 51.264 43.5714 51.264Z" fill="#5F6F56"/>
<path d="M42.4296 8.41374C42.6699 8.41374 42.8803 8.20339 42.8803 7.963V7.27187H43.5714C43.8118 7.27187 44.0222 7.06152 44.0222 6.82113C44.0222 6.58073 43.8118 6.37039 43.5714 6.37039H42.8803V5.67925C42.8803 5.43886 42.6699 5.22852 42.4296 5.22852C42.1892 5.22852 41.9788 5.43886 41.9788 5.67925V6.37039H41.2877C41.0473 6.37039 40.8369 6.58073 40.8369 6.82113C40.8369 7.06152 41.0473 7.27187 41.2877 7.27187H41.9788V7.963C41.9788 8.23344 42.1892 8.41374 42.4296 8.41374Z" fill="#5F6F56"/>
</g>
<defs>
<clipPath id="clip0_1_315">
<rect width="61" height="61" fill="white"/>
</clipPath>
</defs>
</svg>
