<svg width="64" height="64" viewBox="0 0 64 64" fill="none" xmlns="http://www.w3.org/2000/svg">
<g clip-path="url(#clip0_1_252)">
<path d="M21.9429 48.9301L21.8483 48.9932C21.47 49.2139 21.1232 49.4661 20.8394 49.7183C20.8079 49.7498 20.7764 49.7813 20.7448 49.8129L20.6818 49.8759C20.4926 50.0336 20.335 50.2227 20.1773 50.3804L19.9567 50.6326C19.8621 50.7587 19.7675 50.8533 19.6414 51.0109H26.0099C25.6 50.6011 25.2217 50.2227 24.8118 49.8759C24.2128 49.3715 23.5823 48.9301 22.8887 48.5203C22.7626 48.5833 22.6365 48.6148 22.5104 48.6779C22.4473 48.7094 22.3842 48.741 22.3212 48.7725H22.2897C22.1951 48.8355 22.069 48.8671 21.9744 48.9301H21.9429Z" fill="#5F6F56"/>
<path d="M48.0788 39.598L47.9527 39.6926C47.2906 40.2601 46.9123 41.0483 46.9123 41.931C46.9123 42.7823 47.2906 43.5704 47.9212 44.1064C48.0158 44.1064 48.1419 44.1064 48.2365 44.1379V39.4719C48.1734 39.5035 48.1419 39.5665 48.0788 39.598Z" fill="#5F6F56"/>
<path d="M49.0562 9.42664H21.6591C20.6502 9.42664 19.799 10.2463 19.799 11.2552V20.4926C20.8709 20.8079 21.9429 21.1862 22.9517 21.6276C24.8118 20.8079 27.6493 19.8306 31.0857 19.7045C33.6079 19.6099 35.7832 20.3035 37.3281 21.6276H46.6601C47.0069 21.6276 47.2906 21.9114 47.2906 22.2582C47.2906 22.605 47.0069 22.8887 46.6601 22.8887H38.4631C38.9675 23.6138 39.3458 24.4335 39.598 25.3163H42.0571C42.4039 25.3163 42.6877 25.6 42.6877 25.9468C42.6877 26.2936 42.4039 26.5774 42.0571 26.5774H39.8502C39.9448 27.334 39.9764 28.1537 39.8818 29.005H42.0571C42.4039 29.005 42.6877 29.2887 42.6877 29.6355C42.6877 29.9823 42.4039 30.266 42.0571 30.266H39.7241C39.535 31.3064 39.2197 32.3468 38.8099 33.4503C38.0217 35.468 37.3911 37.6119 36.9498 39.9133C36.9182 40.134 36.8552 40.3232 36.8236 40.5123C36.7921 40.67 36.7606 40.7961 36.7291 40.9537C36.603 41.5843 36.5084 42.2463 36.4138 42.9084C36.3823 43.2237 36.3192 43.5074 36.2877 43.8227L36.2246 44.4848C36.13 45.3045 36.067 46.1557 35.9724 47.133H39.598V46.2188C39.598 45.0522 40.5438 44.1064 41.7103 44.1064C42.3409 43.5389 42.7192 42.7823 42.7192 41.9311C42.7192 41.0483 42.3409 40.2601 41.6788 39.6926H41.6473L41.5527 39.5981C40.3232 38.5892 39.6296 37.1389 39.6296 35.5626C39.6296 32.6936 41.9626 30.3606 44.8315 30.3606C46.1241 30.3606 47.3222 30.8335 48.2365 31.6532V11.2867C48.2365 10.5301 48.5517 9.89954 49.0562 9.42664ZM24.0236 14.2188H33.734C34.0808 14.2188 34.3645 14.5025 34.3645 14.8493C34.3645 15.1961 34.0808 15.4798 33.734 15.4798H24.0236C23.6768 15.4798 23.3931 15.1961 23.3931 14.8493C23.3931 14.5025 23.6768 14.2188 24.0236 14.2188ZM40.4808 19.1685H24.0236C23.6768 19.1685 23.3931 18.8848 23.3931 18.538C23.3931 18.1912 23.6768 17.9074 24.0236 17.9074H40.4808C40.8276 17.9074 41.1113 18.1912 41.1113 18.538C41.1113 18.8848 40.8276 19.1685 40.4808 19.1685ZM46.6916 19.1685H44.7054C44.3586 19.1685 44.0749 18.8848 44.0749 18.538C44.0749 18.1912 44.3586 17.9074 44.7054 17.9074H46.6916C47.0384 17.9074 47.3222 18.1912 47.3222 18.538C47.3222 18.8848 47.0384 19.1685 46.6916 19.1685ZM46.6916 15.4798H37.9586C37.6118 15.4798 37.3281 15.1961 37.3281 14.8493C37.3281 14.5025 37.6118 14.2188 37.9586 14.2188H46.6916C47.0384 14.2188 47.3222 14.5025 47.3222 14.8493C47.3222 15.1961 47.0384 15.4798 46.6916 15.4798Z" fill="#5F6F56"/>
<path d="M46.6916 14.2188H37.9586C37.6118 14.2188 37.3281 14.5025 37.3281 14.8493C37.3281 15.1961 37.6118 15.4798 37.9586 15.4798H46.6916C47.0384 15.4798 47.3222 15.1961 47.3222 14.8493C47.3222 14.5025 47.0384 14.2188 46.6916 14.2188Z" fill="#475240"/>
<path d="M24.0237 15.4798H33.734C34.0808 15.4798 34.3646 15.1961 34.3646 14.8493C34.3646 14.5025 34.0808 14.2188 33.734 14.2188H24.0237C23.6769 14.2188 23.3931 14.5025 23.3931 14.8493C23.3931 15.1961 23.6769 15.4798 24.0237 15.4798Z" fill="#475240"/>
<path d="M40.4808 17.9073H24.0237C23.6769 17.9073 23.3931 18.1911 23.3931 18.5379C23.3931 18.8847 23.6769 19.1684 24.0237 19.1684H40.4808C40.8276 19.1684 41.1114 18.8847 41.1114 18.5379C41.1114 18.1911 40.8276 17.9073 40.4808 17.9073Z" fill="#475240"/>
<path d="M46.6916 17.9073H44.7054C44.3586 17.9073 44.0749 18.1911 44.0749 18.5379C44.0749 18.8847 44.3586 19.1684 44.7054 19.1684H46.6916C47.0384 19.1684 47.3222 18.8847 47.3222 18.5379C47.3222 18.1911 47.0384 17.9073 46.6916 17.9073Z" fill="#475240"/>
<path d="M31.6847 51.2315C31.7478 50.6325 31.7793 49.9389 31.8424 49.1823C31.8424 49.0247 31.8739 48.867 31.8739 48.7094V48.6463C31.9054 48.3626 31.9054 48.0788 31.937 47.7951C31.937 47.6059 31.9685 47.4168 31.9685 47.2276C32.0315 46.3448 32.1261 45.399 32.2207 44.4217C32.2522 44.201 32.2838 43.9803 32.2838 43.7596C32.3153 43.4444 32.3468 43.1606 32.4099 42.8453C32.5044 42.2148 32.599 41.5527 32.7251 40.8591C32.7251 40.7961 32.7567 40.7015 32.7567 40.6384C25.001 41.4581 15.9527 36.5084 12.5793 32.0631C10.1517 28.8788 9.6473 25.0956 9.71036 22.2897C9.67883 22.3212 9.67883 22.3212 9.6473 22.3527L9.58425 22.4158C6.71528 24.7803 7.03056 29.7616 7.81873 33.5448C8.51233 36.8552 9.11134 39.9764 9.61578 42.7508C10.3724 46.7232 11.003 50.1596 11.665 52.5242C11.8857 53.3123 12.4217 54.6049 13.5882 54.6365H13.7458C14.3448 54.6049 15.0384 54.2582 15.7951 53.6276L15.8581 53.5646C16.2049 53.2808 16.5517 52.9025 16.867 52.4926C16.9301 52.4296 16.9616 52.3665 17.0246 52.3035C17.1192 52.1774 17.2138 52.0513 17.2769 51.9567C17.4345 51.736 17.5606 51.5468 17.7182 51.3577L18.1281 50.8217L18.1596 50.7902C18.5064 50.3488 18.7586 50.002 19.0424 49.6867L19.2631 49.4345C19.4522 49.2453 19.6414 49.0246 19.8621 48.8355L19.9251 48.7724C19.9567 48.7409 19.9882 48.7094 20.0512 48.6779C20.398 48.3626 20.7764 48.0788 21.2177 47.8266C21.2493 47.7951 21.2808 47.7951 21.3439 47.7636L21.4069 47.732L21.4384 47.7005C21.47 47.669 21.5015 47.669 21.5645 47.6375C20.6818 47.1961 19.736 46.7862 18.6641 46.4079C18.3488 46.2818 18.1596 45.935 18.2857 45.5882C18.4118 45.2729 18.7586 45.0838 19.1054 45.2099C20.7448 45.8089 22.132 46.4394 23.3301 47.133C24.1813 47.6375 24.9695 48.1734 25.6631 48.7724C26.3567 49.3399 26.9872 49.9705 27.6493 50.7271C28.0591 51.2 28.469 51.7045 28.9104 52.2719C29.5724 53.1232 30.266 53.7852 30.9281 54.1636C31.1803 53.7537 31.3695 53.2493 31.4956 52.6503C31.5902 52.3035 31.6532 51.799 31.6847 51.2315Z" fill="#546C46"/>
<path d="M50.4434 54.6995H52.3035C52.7764 54.6995 53.1547 54.3212 53.1547 53.8483V52.934H50.7271V53.8483C50.7271 54.1635 50.6325 54.4473 50.4434 54.6995Z" fill="#5F6F56"/>
<path d="M46.5656 35.405C46.5656 35.468 46.5656 35.4995 46.5656 35.5626C46.5656 35.9094 46.8493 36.1931 47.1961 36.1931C47.5429 36.1931 47.8266 35.9094 47.8266 35.5626C47.8266 35.468 47.8266 35.405 47.8266 35.3104C47.7951 34.9636 47.4798 34.7114 47.133 34.7429C46.8178 34.7429 46.5656 35.0582 46.5656 35.405Z" fill="#475240"/>
<path d="M45.1783 33.8286C45.6197 33.9231 45.9981 34.1438 46.2503 34.5221C46.3764 34.6798 46.5655 34.7744 46.7547 34.7744C46.8808 34.7744 47.0069 34.7428 47.133 34.6483C47.4168 34.4276 47.4798 34.0492 47.2591 33.7655C46.8178 33.1665 46.1557 32.7566 45.4306 32.599C45.0838 32.5359 44.7685 32.7566 44.6739 33.1034C44.6109 33.4187 44.8316 33.7655 45.1783 33.8286Z" fill="#475240"/>
<path d="M38.9675 50.2857H47.4168C47.7636 50.2857 48.0473 50.002 48.0473 49.6552C48.0473 49.3084 47.7636 49.0247 47.4168 49.0247H38.9675C38.6207 49.0247 38.337 49.3084 38.337 49.6552C38.337 50.002 38.6207 50.2857 38.9675 50.2857Z" fill="#475240"/>
<path d="M51.2946 49.6552C51.2946 49.3084 51.0108 49.0247 50.6641 49.0247H49.4345C49.0877 49.0247 48.804 49.3084 48.804 49.6552C48.804 50.002 49.0877 50.2857 49.4345 50.2857H50.6641C51.0108 50.2857 51.2946 50.002 51.2946 49.6552Z" fill="#475240"/>
<path d="M37.3281 59.0818C37.3281 58.735 37.0444 58.4513 36.6976 58.4513H16.6463C16.2995 58.4513 16.0158 58.735 16.0158 59.0818C16.0158 59.4286 16.2995 59.7124 16.6463 59.7124H36.7291C37.0444 59.7124 37.3281 59.4286 37.3281 59.0818Z" fill="#475240"/>
<path d="M24.1813 55.9607C24.5281 55.9607 24.8118 55.6769 24.8118 55.3301C24.8118 54.9833 24.5281 54.6996 24.1813 54.6996H22.4158C22.069 54.6996 21.7852 54.9833 21.7852 55.3301C21.7852 55.6769 22.069 55.9607 22.4158 55.9607H24.1813Z" fill="#475240"/>
<path d="M44.5478 58.4513H40.9852C40.6384 58.4513 40.3547 58.735 40.3547 59.0818C40.3547 59.4286 40.6384 59.7124 40.9852 59.7124H44.5478C44.8946 59.7124 45.1784 59.4286 45.1784 59.0818C45.1784 58.735 44.8946 58.4513 44.5478 58.4513Z" fill="#475240"/>
<path d="M58.199 54.6995H54.2266C54.3527 54.4473 54.4158 54.1635 54.4158 53.8483V52.934H55.3931C55.7399 52.934 56.0236 52.6502 56.0236 52.3034V52.2089H57.1586C57.5054 52.2089 57.7892 51.9251 57.7892 51.5783C57.7892 51.2315 57.5054 50.9478 57.1586 50.9478H56.0236V49.466C56.0236 48.1734 54.9832 47.1645 53.7222 47.1645H52.1773V16.2049H56.4966C56.8433 16.2049 57.1271 15.9212 57.1271 15.5744V11.2867C57.1271 9.58425 55.7399 8.16553 54.0059 8.16553H21.6591C19.9567 8.16553 18.5379 9.55272 18.5379 11.2552V20.1773C17.3084 19.9251 16.0788 19.736 14.8493 19.7044C12.7054 19.6414 10.8769 20.0828 9.39508 21.0286C9.33203 21.0916 9.23745 21.1232 9.20592 21.1547C9.14287 21.1862 9.07981 21.2493 9.01676 21.3123L8.89065 21.4069C8.85912 21.4384 8.82759 21.47 8.79607 21.5015C6.14779 23.7084 5.39114 27.9645 6.6207 33.8601C7.31429 37.1389 7.91331 40.2916 8.41774 43.0345C8.98523 46.0611 9.48966 48.7409 9.9941 50.9478H8.38622C8.03942 50.9478 7.75567 51.2315 7.75567 51.5783C7.75567 51.9251 8.03942 52.2089 8.38622 52.2089H10.3094C10.3724 52.4611 10.4355 52.7133 10.4985 52.934C10.6877 53.6276 10.9714 54.2266 11.3182 54.6995H8.134C7.7872 54.6995 7.50346 54.9832 7.50346 55.33C7.50346 55.6768 7.7872 55.9606 8.134 55.9606H13.6197C13.6512 55.9606 13.6828 55.9606 13.7143 55.9606C13.7773 55.9606 13.8089 55.9606 13.8719 55.9606H18.0335C18.3803 55.9606 18.664 55.6768 18.664 55.33C18.664 54.9832 18.3803 54.6995 18.0335 54.6995H16.6148C16.6463 54.668 16.7094 54.6365 16.7409 54.6049L16.8039 54.5419C17.1823 54.1951 17.5606 53.8167 17.9389 53.3438C18.002 53.2808 18.0335 53.2177 18.0966 53.1547C18.1911 53.0286 18.2857 52.9025 18.3803 52.7764C18.5064 52.5872 18.664 52.398 18.7902 52.2089H27.2079C27.4601 52.4926 27.6808 52.8079 27.9645 53.1547C28.4374 53.7537 28.9103 54.2897 29.4463 54.6995H26.3882C26.0414 54.6995 25.7576 54.9832 25.7576 55.33C25.7576 55.6768 26.0414 55.9606 26.3882 55.9606H32.0946C32.2207 55.9606 32.3468 55.9921 32.4414 55.9921C32.5675 55.9921 32.7251 55.9921 32.8512 55.9606C32.8828 55.9606 32.8828 55.9606 32.9143 55.9606C33.0089 55.9606 33.0719 55.9291 33.1665 55.9291C34.1438 55.7084 34.869 54.9832 35.2788 53.9113C35.3103 55.0463 36.2246 55.9921 37.3911 55.9921H52.3665H58.2621C58.6089 55.9921 58.8926 55.7084 58.8926 55.3616C58.8926 55.0148 58.5458 54.6995 58.199 54.6995ZM54.7626 49.466V51.6729H53.7852H35.8463H34.869V49.466C34.869 48.8985 35.3419 48.4256 35.9094 48.4256H40.2286H49.3714H53.6906C54.2897 48.4256 54.7626 48.8985 54.7626 49.466ZM40.8906 35.5626C40.8906 33.3872 42.6562 31.6217 44.8315 31.6217C47.0069 31.6217 48.7724 33.3872 48.7724 35.5626C48.7724 36.7606 48.2365 37.864 47.3222 38.6207C47.2906 38.6522 47.2276 38.6837 47.1961 38.7153C46.2502 39.5034 45.6828 40.67 45.6828 41.931C45.6828 42.7192 45.9034 43.4759 46.3133 44.1064H43.4128C43.8227 43.4443 44.0434 42.7192 44.0434 41.931C44.0434 40.7015 43.5074 39.535 42.5616 38.7468L42.53 38.7153L42.4985 38.6837L42.4355 38.6207L42.4039 38.5892C41.3951 37.864 40.8906 36.7606 40.8906 35.5626ZM41.7419 45.399H47.9212C48.3941 45.399 48.7724 45.7773 48.7724 46.2502V47.1645H40.8906V46.2502C40.8906 45.7773 41.269 45.399 41.7419 45.399ZM50.0335 47.1645V46.2502C50.0335 45.1783 49.2453 44.3271 48.2365 44.1695C48.1419 44.1379 48.0158 44.1379 47.9212 44.1379C47.2906 43.5704 46.9123 42.8138 46.9123 41.9626C46.9123 41.1113 47.2906 40.2916 47.9527 39.7241L48.0788 39.6296C48.1419 39.598 48.1734 39.535 48.2365 39.5034C49.3714 38.5261 50.0335 37.1074 50.0335 35.5941C50.0335 34.0177 49.3399 32.6305 48.2365 31.6847C47.3222 30.8966 46.1241 30.3921 44.8315 30.3921C41.9626 30.3921 39.6296 32.7251 39.6296 35.5941C39.6296 37.1704 40.3232 38.6522 41.5527 39.6296L41.6473 39.7241H41.6788C42.3409 40.2916 42.7192 41.1113 42.7192 41.9626C42.7192 42.8138 42.3409 43.602 41.7103 44.1379C40.5438 44.1379 39.598 45.0837 39.598 46.2502V47.1645H35.9724C36.0355 46.1872 36.1301 45.336 36.2246 44.5163L36.2877 43.8542C36.3192 43.5704 36.3507 43.2552 36.4138 42.9399C36.5084 42.2778 36.603 41.6158 36.7291 40.9852C36.7606 40.8591 36.7606 40.733 36.8236 40.5438C36.8552 40.3547 36.8867 40.134 36.9498 39.9448C37.4227 37.6118 38.0217 35.4995 38.8099 33.4818C39.2512 32.3783 39.535 31.3064 39.7241 30.2975H42.0571C42.4039 30.2975 42.6877 30.0138 42.6877 29.667C42.6877 29.3202 42.4039 29.0365 42.0571 29.0365H39.8818C39.9764 28.1852 39.9448 27.3655 39.8503 26.6089H42.0571C42.4039 26.6089 42.6877 26.3251 42.6877 25.9783C42.6877 25.6315 42.4039 25.3478 42.0571 25.3478H39.598C39.3458 24.465 38.9675 23.6453 38.4631 22.9202H46.6601C47.0069 22.9202 47.2906 22.6365 47.2906 22.2897C47.2906 21.9429 47.0069 21.6591 46.6601 21.6591H37.3281C35.7833 20.335 33.6079 19.6414 31.0857 19.736C27.6493 19.8621 24.8118 20.8079 22.9517 21.6591C21.9429 21.2177 20.8709 20.8394 19.799 20.5241V11.2867C19.799 10.2778 20.6187 9.45814 21.6591 9.45814H49.0562H51.5153C51.1369 9.96257 50.9163 10.6246 50.9163 11.3182V15.6374V47.1961H50.0335V47.1645ZM55.8345 11.2867V14.9754H52.1458V11.2867C52.1458 10.2778 52.9655 9.42661 54.0059 9.42661C55.0463 9.42661 55.8345 10.2463 55.8345 11.2867ZM22.3842 48.7094C22.4473 48.6778 22.5103 48.6463 22.5734 48.6148C22.6995 48.5517 22.8256 48.5202 22.9517 48.4571C23.6453 48.867 24.2759 49.3084 24.8749 49.8128C25.2847 50.1596 25.6946 50.5379 26.0729 50.9478H19.6729C19.7675 50.8217 19.8621 50.6956 19.9882 50.5695L20.2089 50.3172C20.3665 50.1596 20.5241 49.9704 20.7133 49.8128L20.7764 49.7498C20.8079 49.7182 20.8394 49.7182 20.8709 49.6552C21.1862 49.403 21.5015 49.1507 21.8798 48.93L21.9744 48.867L22.0374 48.8355C22.132 48.7724 22.2266 48.7409 22.3527 48.6778L22.3842 48.7094ZM32.7882 54.668C32.7251 54.668 32.6936 54.6995 32.6305 54.6995H32.0946C31.7163 54.6365 31.3379 54.5103 30.9596 54.2897C30.266 53.8798 29.5724 53.2493 28.9419 52.398C28.5005 51.799 28.0591 51.2946 27.6808 50.8532C27.0187 50.0966 26.3567 49.466 25.6946 48.8985C24.9695 48.2995 24.2128 47.7635 23.3616 47.2591C22.132 46.534 20.7448 45.935 19.137 45.336C18.8217 45.2099 18.4434 45.399 18.3172 45.7143C18.1911 46.0296 18.3803 46.4079 18.6956 46.534C19.7675 46.9123 20.7448 47.3222 21.5961 47.7635C21.5645 47.7951 21.533 47.7951 21.47 47.8266L21.4384 47.8581L21.3754 47.8897C21.3438 47.9212 21.2808 47.9527 21.2493 47.9527C20.8079 48.2049 20.4296 48.4887 20.0828 48.8039C20.0512 48.8355 19.9882 48.867 19.9567 48.8985L19.8936 48.9616C19.6729 49.1507 19.4838 49.3714 19.2946 49.5606L19.0739 49.8128C18.7902 50.1281 18.5379 50.4749 18.1911 50.9163L18.1596 50.9478L17.7498 51.4837C17.6237 51.6729 17.466 51.8621 17.3084 52.0828C17.2138 52.2089 17.1507 52.3034 17.0562 52.4296C17.0246 52.4926 16.9616 52.5241 16.8985 52.6187C16.5833 53.0286 16.2365 53.4069 15.8897 53.6906L15.8266 53.7537C15.1015 54.3842 14.4079 54.731 13.7773 54.7626H13.6197C12.4532 54.731 11.9172 53.4384 11.6966 52.6502C11.0345 50.2857 10.3724 46.8493 9.6473 42.8768C9.14287 40.1025 8.54385 36.9498 7.85026 33.6709C7.06208 29.9192 6.71528 24.9379 9.61577 22.5419L9.67883 22.4788C9.71035 22.4473 9.71035 22.4473 9.74188 22.4158L9.77341 22.3842C9.83646 22.3527 9.86799 22.3212 9.96257 22.2581C10.0256 22.2266 10.0887 22.1951 10.1202 22.1636C11.3813 21.3438 12.9576 20.9655 14.8493 21.0286C16.2365 21.0916 17.6552 21.2808 19.0739 21.6276C19.8936 21.8483 20.7133 22.1005 21.5015 22.4158C20.1143 23.1724 19.3261 23.803 19.2946 23.8345C19.0108 24.0552 18.9793 24.4335 19.2 24.7172C19.4207 25.001 19.799 25.0325 20.0828 24.8118C20.0828 24.8118 21.2493 23.8975 23.267 22.9517H23.2985C25.0325 22.132 27.8384 21.1547 31.2118 21.0286C33.5133 20.934 35.4049 21.533 36.6975 22.731L36.7291 22.7626C37.0128 23.0463 37.265 23.3301 37.5172 23.6453C37.9586 24.2759 38.3054 25.001 38.4946 25.8207C38.4946 25.8837 38.4631 25.9468 38.4631 25.9783C38.4631 26.136 38.5261 26.2621 38.6207 26.3882C38.9675 28.3113 38.6522 30.5813 37.6749 33.0719C36.8552 35.1842 36.2246 37.3596 35.7517 39.7557C35.7202 39.9764 35.6571 40.197 35.6256 40.3862C35.5941 40.5438 35.5626 40.7015 35.531 40.8276C35.4049 41.4897 35.3103 42.1517 35.2158 42.8453C35.1842 43.1606 35.1212 43.4759 35.0897 43.7911L35.0266 44.4532C34.932 45.336 34.8374 46.2502 34.7744 47.2906C34.7744 47.3852 34.7744 47.5113 34.7429 47.6059C34.1123 48.0158 33.6709 48.7409 33.6709 49.5606V52.398C33.6709 52.7133 33.9232 52.997 34.2384 53.0286C33.9547 53.8798 33.4818 54.5103 32.7882 54.668ZM36.4768 53.8483V52.934H50.7271H53.1547V53.8483C53.1547 54.3212 52.7764 54.6995 52.3034 54.6995H50.4434H37.3281C36.8552 54.6995 36.4768 54.3212 36.4768 53.8483Z" fill="#475240"/>
<path d="M6.17934 50.9478H5.80101C5.45422 50.9478 5.17047 51.2315 5.17047 51.5783C5.17047 51.9251 5.45422 52.2088 5.80101 52.2088H6.17934C6.52614 52.2088 6.80988 51.9251 6.80988 51.5783C6.80988 51.2315 6.52614 50.9478 6.17934 50.9478Z" fill="#475240"/>
<path d="M10.4985 16.7409C11.5389 16.7409 12.3902 15.8897 12.3902 14.8493C12.3902 13.8089 11.5389 12.9576 10.4985 12.9576C9.45813 12.9576 8.6069 13.8089 8.6069 14.8493C8.63843 15.8897 9.48966 16.7409 10.4985 16.7409ZM10.4985 13.9035C11.003 13.9035 11.4443 14.3133 11.4443 14.8493C11.4443 15.3537 11.0345 15.7951 10.4985 15.7951C9.96257 15.7951 9.55272 15.3852 9.55272 14.8493C9.58424 14.3448 9.99409 13.9035 10.4985 13.9035Z" fill="#5F6F56"/>
<path d="M11.9173 60.2483C10.8769 60.2483 10.0256 61.0995 10.0256 62.1399C10.0256 63.1803 10.8769 64.0315 11.9173 64.0315C12.9577 64.0315 13.8089 63.1803 13.8089 62.1399C13.8089 61.0995 12.9577 60.2483 11.9173 60.2483ZM11.9173 63.0542C11.4128 63.0542 10.9714 62.6443 10.9714 62.1084C10.9714 61.604 11.3813 61.1626 11.9173 61.1626C12.4532 61.1626 12.8631 61.5724 12.8631 62.1084C12.8631 62.6443 12.4217 63.0542 11.9173 63.0542Z" fill="#5F6F56"/>
<path d="M62.1084 35.9409C61.068 35.9409 60.2168 36.7921 60.2168 37.8325C60.2168 38.8729 61.068 39.7242 62.1084 39.7242C63.1488 39.7242 64 38.8729 64 37.8325C64 36.7921 63.1488 35.9409 62.1084 35.9409ZM62.1084 38.7468C61.604 38.7468 61.1626 38.337 61.1626 37.801C61.1626 37.2966 61.5724 36.8552 62.1084 36.8552C62.6444 36.8552 63.0542 37.2651 63.0542 37.801C63.0542 38.337 62.6444 38.7468 62.1084 38.7468Z" fill="#5F6F56"/>
<path d="M24.4651 0.126125C24.2759 -0.0630377 23.9921 -0.0630377 23.803 0.126125L23.2986 0.630558L22.7941 0.126125C22.605 -0.0630377 22.3212 -0.0630377 22.132 0.126125C21.9429 0.315287 21.9429 0.599031 22.132 0.788194L22.6365 1.29263L22.132 1.79706C21.9429 1.98622 21.9429 2.26997 22.132 2.45913C22.2266 2.55371 22.3527 2.58524 22.4788 2.58524C22.605 2.58524 22.7311 2.55371 22.8256 2.45913L23.3301 1.9547L23.8345 2.45913C23.9291 2.55371 24.0552 2.58524 24.1813 2.58524C24.3074 2.58524 24.4335 2.55371 24.5281 2.45913C24.7173 2.26997 24.7173 1.98622 24.5281 1.79706L23.9606 1.32415L24.4651 0.819721C24.6542 0.630558 24.6542 0.315287 24.4651 0.126125Z" fill="#5F6F56"/>
<path d="M58.3251 20.3665C58.136 20.1773 57.8522 20.1773 57.6631 20.3665L57.1586 20.8709L56.6542 20.3665C56.4651 20.1773 56.1813 20.1773 55.9922 20.3665C55.803 20.5556 55.803 20.8394 55.9922 21.0286L56.4966 21.533L55.9922 22.0374C55.803 22.2266 55.803 22.5103 55.9922 22.6995C56.0867 22.7941 56.2128 22.8256 56.3389 22.8256C56.4651 22.8256 56.5912 22.7941 56.6857 22.6995L57.1902 22.1951L57.6946 22.6995C57.7892 22.7941 57.9153 22.8256 58.0414 22.8256C58.1675 22.8256 58.2936 22.7941 58.3882 22.6995C58.5774 22.5103 58.5774 22.2266 58.3882 22.0374L57.8838 21.533L58.3882 21.0286C58.5143 20.8709 58.5143 20.5556 58.3251 20.3665Z" fill="#5F6F56"/>
<path d="M2.49065 45.0838C2.30149 44.8946 2.01775 44.8946 1.82859 45.0838L1.32415 45.5882L0.819719 45.0838C0.630556 44.8946 0.346812 44.8946 0.15765 45.0838C-0.0315131 45.2729 -0.0315131 45.5567 0.15765 45.7458L0.662083 46.2503L0.15765 46.7547C-0.0315131 46.9439 -0.0315131 47.2276 0.15765 47.4168C0.252231 47.5114 0.378339 47.5429 0.504448 47.5429C0.630556 47.5429 0.756664 47.5114 0.851246 47.4168L1.35568 46.9123L1.86011 47.4168C1.95469 47.5114 2.0808 47.5429 2.20691 47.5429C2.33302 47.5429 2.45913 47.5114 2.55371 47.4168C2.74287 47.2276 2.74287 46.9439 2.55371 46.7547L2.04928 46.2503L2.55371 45.7458C2.67982 45.5567 2.67982 45.2729 2.49065 45.0838Z" fill="#5F6F56"/>
<path d="M5.58032 11.8542C5.61185 11.8542 5.64337 11.8857 5.70643 11.8857C5.73795 11.8857 5.80101 11.8857 5.83253 11.8857C5.92712 11.8857 5.99017 11.8542 6.08475 11.8226C6.14781 11.7911 6.24239 11.7596 6.27391 11.6965C6.40002 11.5704 6.46308 11.4128 6.46308 11.2551C6.46308 11.0975 6.40002 10.9399 6.27391 10.8138C6.05322 10.5931 5.61185 10.5616 5.39116 10.8138C5.35963 10.8453 5.3281 10.8768 5.3281 10.9083C5.29657 10.9399 5.29657 10.9714 5.26505 11.0029C5.26505 11.0345 5.23352 11.066 5.23352 11.129C5.23352 11.1606 5.23352 11.2236 5.23352 11.2551C5.23352 11.4128 5.29657 11.5704 5.42268 11.6965C5.45421 11.7281 5.48574 11.7596 5.51726 11.7596C5.48574 11.8226 5.51726 11.8226 5.58032 11.8542Z" fill="#5F6F56"/>
<path d="M44.8315 5.26508C44.9892 5.26508 45.1468 5.20203 45.2729 5.07592C45.336 5.01286 45.3675 4.94981 45.399 4.88675C45.4305 4.8237 45.4621 4.72912 45.4621 4.63454C45.4621 4.4769 45.399 4.31927 45.2729 4.19316C45.2414 4.16163 45.2099 4.1301 45.1783 4.1301C45.1468 4.09858 45.1153 4.09858 45.0837 4.06705C45.0522 4.03552 45.0207 4.03552 44.9576 4.03552C44.8631 4.03552 44.8 4.03552 44.7054 4.03552C44.6739 4.03552 44.6424 4.06705 44.5793 4.06705C44.5478 4.06705 44.5163 4.09858 44.4532 4.1301C44.4217 4.16163 44.3902 4.19316 44.3586 4.19316C44.2325 4.31927 44.1695 4.4769 44.1695 4.63454C44.1695 4.72912 44.1695 4.79217 44.201 4.88675C44.2325 4.94981 44.264 5.04439 44.3271 5.07592C44.4847 5.20203 44.6424 5.26508 44.8315 5.26508Z" fill="#5F6F56"/>
<path d="M49.7498 61.068C49.7813 61.0995 49.8128 61.131 49.8128 61.1626C49.8759 61.2256 49.9389 61.2571 50.002 61.2887C50.065 61.3202 50.1596 61.3202 50.2542 61.3202C50.4118 61.3202 50.5695 61.2571 50.6956 61.131C50.7271 61.0995 50.7586 61.068 50.7586 61.0365C50.7902 61.0049 50.7902 60.9734 50.8217 60.9419C50.8532 60.9104 50.8532 60.8788 50.8532 60.8158C50.8532 60.7842 50.8532 60.7212 50.8532 60.6897C50.8532 60.6581 50.8532 60.5951 50.8532 60.5636C50.8532 60.532 50.8217 60.469 50.8217 60.4374C50.8217 60.4059 50.7902 60.3744 50.7586 60.3429C50.7271 60.3113 50.7271 60.2798 50.6956 60.2483C50.4434 60.0276 50.0335 60.0276 49.8128 60.2483C49.7813 60.2798 49.7498 60.3113 49.7498 60.3429C49.7182 60.3744 49.7182 60.4059 49.6867 60.4374C49.6552 60.469 49.6552 60.5005 49.6552 60.5636C49.6552 60.5951 49.6552 60.6581 49.6552 60.6897C49.6552 60.7212 49.6552 60.7842 49.6552 60.8158C49.6552 60.8473 49.6867 60.9104 49.6867 60.9419C49.7182 61.0049 49.7498 61.0365 49.7498 61.068Z" fill="#5F6F56"/>
</g>
<defs>
<clipPath id="clip0_1_252">
<rect width="64" height="64" fill="white"/>
</clipPath>
</defs>
</svg>
