<svg width="64" height="64" viewBox="0 0 64 64" fill="none" xmlns="http://www.w3.org/2000/svg">
<path d="M4.98128 50.9162C5.2335 50.9162 5.45419 50.6955 5.45419 50.4433C5.45419 50.1911 5.2335 49.9704 4.98128 49.9704C4.5399 49.9704 4.1931 49.6236 4.1931 49.1822C4.1931 48.7409 4.5399 48.3941 4.98128 48.3941C5.42266 48.3941 5.76946 48.7409 5.76946 49.1822C5.76946 49.4344 5.99015 49.6551 6.24236 49.6551C6.49458 49.6551 6.71527 49.4344 6.71527 49.1822C6.71527 48.2364 5.92709 47.4482 4.98128 47.4482C4.03547 47.4482 3.24729 48.2364 3.24729 49.1822C3.24729 50.128 4.00394 50.9162 4.98128 50.9162Z" fill="#5F6F56"/>
<path d="M55.9606 43.1605C55.7714 42.9714 55.4877 42.9714 55.2985 43.1605C54.9832 43.4758 54.7941 43.9172 54.7941 44.3901C54.7941 44.863 54.9832 45.3044 55.2985 45.6196C55.6453 45.9664 56.0867 46.1241 56.5281 46.1241C56.9695 46.1241 57.4108 45.9664 57.7576 45.6196C58.0729 45.3044 58.2621 44.863 58.2621 44.3901C58.2621 43.9172 58.0729 43.4758 57.7576 43.1605C57.5685 42.9714 57.2847 42.9714 57.0956 43.1605C56.9064 43.3497 56.9064 43.6335 57.0956 43.8226C57.2532 43.9802 57.3163 44.1694 57.3163 44.3901C57.3163 44.6108 57.2217 44.8 57.0956 44.9576C56.7803 45.2729 56.2759 45.2729 55.9606 44.9576C55.803 44.8 55.7399 44.6108 55.7399 44.3901C55.7399 44.1694 55.8345 43.9802 55.9606 43.8226C56.1498 43.665 56.1498 43.3497 55.9606 43.1605Z" fill="#5F6F56"/>
<path d="M40.197 62.7389C40.197 62.0453 39.6296 61.4778 38.936 61.4778C38.2424 61.4778 37.6749 62.0453 37.6749 62.7389C37.6749 63.4325 38.2424 64 38.936 64C39.6296 64 40.197 63.4325 40.197 62.7389ZM38.936 63.0541C38.7783 63.0541 38.6207 62.928 38.6207 62.7389C38.6207 62.5497 38.7468 62.4236 38.936 62.4236C39.1251 62.4236 39.2512 62.5497 39.2512 62.7389C39.2512 62.928 39.0936 63.0541 38.936 63.0541Z" fill="#5F6F56"/>
<path d="M27.2709 8.22859C27.9645 8.22859 28.532 7.6611 28.532 6.9675C28.532 6.27391 27.9645 5.70642 27.2709 5.70642C26.5773 5.70642 26.0099 6.27391 26.0099 6.9675C26.0099 7.6611 26.5773 8.22859 27.2709 8.22859ZM27.2709 6.65223C27.4286 6.65223 27.5862 6.77834 27.5862 6.9675C27.5862 7.12514 27.4601 7.28277 27.2709 7.28277C27.0818 7.28277 26.9557 7.15667 26.9557 6.9675C26.9557 6.80987 27.1133 6.65223 27.2709 6.65223Z" fill="#5F6F56"/>
<path d="M61.131 11.6966H61.8562V12.4217C61.8562 12.6739 62.0768 12.8946 62.3291 12.8946C62.5813 12.8946 62.802 12.6739 62.802 12.4217V11.6966H63.5271C63.7793 11.6966 64 11.4759 64 11.2237C64 10.9715 63.7793 10.7508 63.5271 10.7508H62.802V10.0256C62.802 9.77342 62.5813 9.55273 62.3291 9.55273C62.0768 9.55273 61.8562 9.77342 61.8562 10.0256V10.7508H61.131C60.8788 10.7508 60.6581 10.9715 60.6581 11.2237C60.6581 11.4759 60.8788 11.6966 61.131 11.6966Z" fill="#5F6F56"/>
<path d="M0.472906 30.8965H1.19803V31.6217C1.19803 31.8739 1.41872 32.0946 1.67094 32.0946C1.92315 32.0946 2.14384 31.8739 2.14384 31.6217V30.8965H2.86897C3.12118 30.8965 3.34187 30.6758 3.34187 30.4236C3.34187 30.1714 3.12118 29.9507 2.86897 29.9507H2.14384V29.2256C2.14384 28.9734 1.92315 28.7527 1.67094 28.7527C1.41872 28.7527 1.19803 28.9734 1.19803 29.2256V29.9507H0.472906C0.22069 29.9507 0 30.1399 0 30.4236C0 30.7074 0.22069 30.8965 0.472906 30.8965Z" fill="#5F6F56"/>
<path d="M11.4128 2.14384H12.1379V2.86897C12.1379 3.12118 12.3586 3.34187 12.6108 3.34187C12.8631 3.34187 13.0837 3.12118 13.0837 2.86897V2.14384H13.8089C14.0611 2.14384 14.2818 1.92315 14.2818 1.67094C14.2818 1.41872 14.0611 1.19803 13.8089 1.19803H13.0837V0.472906C13.0837 0.22069 12.8946 0 12.6108 0C12.3271 0 12.1379 0.22069 12.1379 0.472906V1.19803H11.4128C11.1606 1.19803 10.9399 1.41872 10.9399 1.67094C10.9399 1.92315 11.1606 2.14384 11.4128 2.14384Z" fill="#5F6F56"/>
<path d="M13.2414 27.5231C14.0926 31.5901 14.8177 35.4364 15.4483 38.8414C16.3626 43.6965 17.1507 47.9212 17.9704 50.8216C18.2542 51.862 19.0108 53.596 20.6818 53.5015C21.47 53.4699 22.3527 53.0285 23.2985 52.2088L23.3616 52.1458C23.7714 51.7675 24.2128 51.3261 24.6227 50.8216C24.6857 50.7586 24.7488 50.664 24.8118 50.601C24.9379 50.4433 25.0325 50.3172 25.1586 50.1596C25.1902 50.1281 25.1902 50.0965 25.2217 50.065C25.3478 49.9074 25.4739 49.7497 25.5685 49.5921L25.6631 49.466C25.8207 49.2453 25.9783 49.0246 26.136 48.8039C26.4512 48.3941 26.8296 47.8896 27.2394 47.4167C27.334 47.2906 27.4286 47.196 27.5232 47.1014C27.7438 46.8492 27.9961 46.597 28.2483 46.3763C28.3113 46.3133 28.3744 46.2502 28.4374 46.2187C28.8788 45.8404 29.3517 45.4936 29.8562 45.1783C29.9192 45.1468 30.0138 45.0837 30.1084 45.0207C30.2345 44.9576 30.3921 44.863 30.5182 44.8C29.131 44.0749 27.5232 43.4443 25.6946 42.8138C25.3793 42.7192 25.1901 42.3409 25.2847 42.0256C25.3793 41.7103 25.7576 41.5212 26.0729 41.6157C28.532 42.4354 30.5498 43.3182 32.2522 44.3271C33.2926 44.9261 34.2384 45.5882 35.1212 46.3133C36.4769 47.4482 37.7064 48.7724 39.1251 50.601C40.2916 52.1458 41.6158 53.1231 42.7823 53.4384C43.3498 52.9024 43.7596 52.0827 43.9488 50.9793C44.4532 48.1103 44.3271 42.53 45.5567 35.9093C35.6887 37.8325 23.5823 31.3694 19.2 25.6315C16.1419 21.6276 15.5744 16.8985 15.669 13.462C15.669 13.462 15.6374 13.462 15.6374 13.4936V13.5566L15.6059 13.5881C15.5429 13.6197 15.4798 13.6827 15.4168 13.7143C11.8227 16.6778 12.264 22.8571 13.2414 27.5231Z" fill="#5F6F56"/>
<path d="M44.264 57.9152C44.264 57.5684 43.9803 57.2847 43.6335 57.2847H23.7399C23.3931 57.2847 23.1094 57.5684 23.1094 57.9152C23.1094 58.262 23.3931 58.5457 23.7399 58.5457H43.6335C43.9803 58.5457 44.264 58.2935 44.264 57.9152Z" fill="#475240"/>
<path d="M18.1596 57.2847C17.8128 57.2847 17.5291 57.5684 17.5291 57.9152C17.5291 58.262 17.8128 58.5457 18.1596 58.5457H19.2315C19.5783 58.5457 19.8621 58.262 19.8621 57.9152C19.8621 57.5684 19.5783 57.2847 19.2315 57.2847H18.1596Z" fill="#475240"/>
<path d="M33.7025 54.8257C34.0493 54.8257 34.333 54.5419 34.333 54.1951C34.333 53.8483 34.0493 53.5646 33.7025 53.5646H33.0719C32.7251 53.5646 32.4414 53.8483 32.4414 54.1951C32.4414 54.5419 32.7251 54.8257 33.0719 54.8257H33.7025Z" fill="#475240"/>
<path d="M11.9803 27.7754C12.8315 31.8109 13.5566 35.6887 14.1872 39.0621C14.9754 43.2552 15.669 46.9439 16.3626 49.7813H13.8719C13.5251 49.7813 13.2414 50.0651 13.2414 50.4119C13.2414 50.7587 13.5251 51.0424 13.8719 51.0424H16.7094C16.7094 51.0739 16.7409 51.1055 16.7409 51.1685C17.0246 52.1459 17.4345 52.9656 17.9389 53.5331H10.6877C10.3409 53.5331 10.0571 53.8168 10.0571 54.1636C10.0571 54.5104 10.3409 54.7941 10.6877 54.7941H29.7616C30.1084 54.7941 30.3921 54.5104 30.3921 54.1636C30.3921 53.8168 30.1084 53.5331 29.7616 53.5331H23.6768C23.8345 53.4069 24.0236 53.2808 24.1813 53.1232L24.2443 53.0602C24.7172 52.6503 25.1586 52.1774 25.6 51.6099C25.663 51.5153 25.7261 51.4523 25.7892 51.3577C25.8837 51.2631 25.9468 51.137 26.0414 51.0424H28.5635C28.9103 51.0424 29.1941 50.7587 29.1941 50.4119C29.1941 50.0651 28.9103 49.7813 28.5635 49.7813H26.9557C27.0187 49.6868 27.0818 49.6237 27.1448 49.5291C27.4286 49.1193 27.8069 48.6464 28.1852 48.205C28.2798 48.1104 28.3744 48.0158 28.469 47.9212C28.6896 47.7005 28.9103 47.4799 29.131 47.2592C29.1941 47.2276 29.2256 47.1646 29.2887 47.1331C29.667 46.7863 30.0768 46.5025 30.5497 46.2188C30.6128 46.1872 30.6759 46.1242 30.7704 46.0927C30.8965 46.0296 31.0227 45.935 31.1803 45.872C31.2433 45.8404 31.3379 45.8089 31.401 45.7459C31.5586 45.6513 31.7478 45.5882 31.9369 45.5252C32.8197 46.0611 33.6079 46.6286 34.3645 47.2592C35.6571 48.3311 36.8236 49.5922 38.1478 51.3577C38.8098 52.2404 39.535 52.9656 40.2601 53.5331H38.9675C38.6207 53.5331 38.3369 53.8168 38.3369 54.1636C38.3369 54.5104 38.6207 54.7941 38.9675 54.7941H43.5074C43.5074 54.7941 43.5074 54.7941 43.5389 54.7941C43.5389 54.7941 43.5389 54.7941 43.5704 54.7941H52.0827C52.4295 54.7941 52.7133 54.5104 52.7133 54.1636C52.7133 53.8168 52.4295 53.5331 52.0827 53.5331H46.2187C46.7231 52.9025 47.0699 52.0828 47.2591 51.1055C47.2591 51.1055 47.2591 51.0739 47.2591 51.0424H50.065C50.4118 51.0424 50.6956 50.7587 50.6956 50.4119C50.6956 50.0651 50.4118 49.7813 50.065 49.7813H47.4483C47.5428 48.867 47.6059 47.8267 47.7005 46.6602C47.9212 43.539 48.1734 39.6296 49.0561 35.2789C49.6236 32.4099 50.3803 29.8247 51.3576 27.3025C52.0512 25.4739 52.4926 23.74 52.6818 22.1005L53.1231 21.9744C53.7222 21.7853 54.1005 21.2493 54.1005 20.6188C54.1005 19.9882 53.7222 19.4523 53.1231 19.2946L52.7133 19.1685C52.5241 17.3715 51.9566 15.7636 51.0108 14.4395C49.1507 11.8227 45.998 10.4671 42.0571 10.5932C37.864 10.7193 34.3645 11.9173 32.0946 12.9577C29.8246 11.9173 26.3251 10.7508 22.132 10.5932C19.5468 10.4986 17.3399 11.0345 15.5429 12.201C15.4483 12.2641 15.3537 12.3272 15.2906 12.3902C15.2276 12.4533 15.1645 12.4848 15.0699 12.5478L15.0384 12.5794L15.4167 13.0838L14.8177 12.5794C14.7547 12.6424 14.6916 12.6739 14.597 12.737C11.3813 15.4168 10.4985 20.6188 11.9803 27.7754ZM52.7133 20.6503C52.7133 20.7449 52.6502 20.7764 52.6187 20.7764L52.1458 20.934C52.0512 20.9656 51.9251 20.9971 51.8305 21.0602C51.7359 21.0917 51.6414 21.1547 51.5153 21.1863C49.7813 21.9429 48.4256 23.4247 47.8581 25.2533L47.732 25.7262C47.732 25.7577 47.7005 25.8207 47.6059 25.8207C47.5113 25.8207 47.4798 25.7577 47.4798 25.7262L47.2906 25.2217C46.6601 23.1725 45.0522 21.5646 43.0029 20.934L42.53 20.8079L42.467 20.7764C42.4355 20.7449 42.4355 20.6503 42.4355 20.5872C42.4355 20.5557 42.467 20.5557 42.53 20.5242L43.0029 20.3666C43.1921 20.3035 43.3813 20.2404 43.5074 20.1774C45.1153 19.5469 46.3763 18.2858 47.0699 16.7094C47.1015 16.6148 47.1645 16.5203 47.196 16.4257C47.2276 16.2996 47.2591 16.205 47.3222 16.0789L47.4483 15.606C47.4483 15.5744 47.4798 15.5114 47.5744 15.5114C47.6689 15.5114 47.7005 15.5744 47.7005 15.606L47.8581 16.0789C48.4887 18.1281 50.0965 19.736 52.1458 20.3666L52.6187 20.4927C52.6502 20.5242 52.7133 20.5242 52.7133 20.6503ZM15.4167 13.7143C15.4798 13.6513 15.5429 13.6198 15.6059 13.5882L15.6374 13.5567L15.669 13.5252C15.669 13.5252 15.7005 13.5252 15.7005 13.4937C15.7635 13.4621 15.7951 13.4306 15.8581 13.3675C15.9212 13.3045 16.0158 13.273 16.0788 13.2099C17.6552 12.201 19.6098 11.7281 21.9429 11.8227C25.3793 11.9488 28.3113 12.8001 30.4552 13.6513C28.5951 14.6286 27.5231 15.4799 27.4601 15.5114C27.1763 15.7321 27.1448 16.1104 27.3655 16.3941C27.5862 16.6779 27.9645 16.7094 28.2483 16.4887C28.2483 16.4887 29.73 15.3222 32.2207 14.1872C34.3645 13.1784 37.801 11.9804 41.9626 11.8227C45.4936 11.6966 48.2049 12.8631 49.8443 15.1331C50.5379 16.1104 50.9793 17.2454 51.2 18.5065C50.1911 17.8444 49.4029 16.8355 49.0561 15.669L48.8985 15.1961C48.7093 14.5971 48.1734 14.2188 47.5428 14.2188C46.9123 14.2188 46.3763 14.5971 46.2187 15.1961L46.0926 15.6375C46.0611 15.7321 46.0295 15.8267 45.998 15.9212C45.4936 17.3084 44.3901 18.4119 43.0345 18.9794C42.9084 19.0424 42.7823 19.0739 42.6246 19.1055L42.1517 19.2316C41.8049 19.3262 41.4896 19.5784 41.332 19.8937C41.0167 20.4927 41.1744 21.2493 41.7103 21.6592L41.7419 21.6907C41.8049 21.7538 41.8995 21.7853 41.9626 21.8168C42.0256 21.8483 42.0571 21.8799 42.1202 21.8799H42.1517L42.6246 22.006C44.2956 22.5104 45.5882 23.803 46.0926 25.4739L46.2187 25.9469C46.4079 26.5459 46.9438 26.9242 47.5428 26.9242C48.1734 26.9242 48.7093 26.5143 48.8985 25.9469L49.0561 25.4739C49.4029 24.3074 50.1911 23.2986 51.2 22.6365C50.9793 23.9291 50.601 25.3163 50.065 26.735C49.0561 29.3203 48.2995 31.9685 47.7005 34.9005C46.7862 39.3459 46.534 43.2868 46.3133 46.471C46.1872 48.205 46.0926 49.7183 45.9034 50.7902C45.6512 52.2089 44.9892 53.1547 44.0118 53.3754C43.8226 53.4069 43.665 53.4385 43.4758 53.4385H43.4443C43.2236 53.4385 43.0029 53.4069 42.7507 53.3439C41.5842 53.0286 40.2601 52.0513 39.0936 50.5065C37.6749 48.6464 36.4453 47.3222 35.0896 46.2188C34.2069 45.4937 33.2926 44.8316 32.2207 44.2326C30.5182 43.2237 28.469 42.3409 26.0414 41.5212C25.7261 41.4267 25.3478 41.5843 25.2532 41.9311C25.1586 42.2464 25.3162 42.6247 25.663 42.7193C27.5231 43.3498 29.0995 43.9804 30.4867 44.7055C30.3606 44.7685 30.2029 44.8316 30.0768 44.9262C29.9823 44.9892 29.8877 45.0207 29.8246 45.0838C29.2887 45.3991 28.8158 45.7459 28.4059 46.1242C28.3428 46.1872 28.2798 46.2503 28.2167 46.2818C27.9645 46.5025 27.7123 46.7547 27.4916 47.007C27.397 47.1015 27.3025 47.2276 27.2079 47.3222C26.798 47.7951 26.4197 48.2996 26.1044 48.7094C25.9468 48.9301 25.7892 49.1508 25.6315 49.3715L25.5369 49.4976C25.4108 49.6552 25.3162 49.8129 25.1901 49.9705C25.1586 50.002 25.1586 50.0336 25.1271 50.0651C25.0325 50.2227 24.9064 50.3488 24.7803 50.5065C24.7172 50.601 24.6542 50.6641 24.5911 50.7271C24.1813 51.2316 23.7399 51.7045 23.33 52.0513L23.267 52.1143C22.3527 52.9025 21.4384 53.3439 20.6502 53.4069C18.9793 53.5015 18.2227 51.7675 17.9389 50.7271C17.1192 47.7951 16.331 43.602 15.4167 38.7469C14.7862 35.3419 14.0611 31.4641 13.2098 27.4286C12.264 22.8572 11.8227 16.6779 15.4167 13.7143Z" fill="#475240"/>
<path d="M4.72906 39.1567L5.04434 39.2513C6.11626 39.5665 6.93596 40.4178 7.28276 41.4897L7.37734 41.805C7.53498 42.2779 7.97635 42.6247 8.48079 42.6247C8.98522 42.6247 9.4266 42.3094 9.58424 41.805L9.67882 41.4897C9.99409 40.4178 10.8453 39.5981 11.9172 39.2513L12.2325 39.1567C12.7054 38.9991 13.0522 38.5577 13.0522 38.0532C13.0522 37.5488 12.7369 37.1074 12.2325 36.9498L11.9172 36.8552C10.8453 36.5399 10.0256 35.6887 9.67882 34.6168L9.58424 34.3015C9.4266 33.8286 8.98522 33.4818 8.48079 33.4818C7.97635 33.4818 7.53498 33.7971 7.37734 34.3015L7.28276 34.6168C6.96749 35.6887 6.11626 36.5084 5.04434 36.8552L4.72906 36.9498C4.25616 37.1074 3.90936 37.5488 3.90936 38.0532C3.90936 38.5577 4.25616 38.9991 4.72906 39.1567ZM5.42266 38.0532C6.87291 37.6119 8.00788 36.4769 8.48079 34.9951C8.92217 36.4454 10.0571 37.5803 11.5389 38.0532C10.0887 38.4946 8.95369 39.6296 8.48079 41.1114C8.00788 39.6296 6.87291 38.4946 5.42266 38.0532Z" fill="#475240"/>
<path d="M51.8305 30.6128L51.5153 30.7074C51.0424 30.865 50.6956 31.3064 50.6956 31.8108C50.6956 32.3152 51.0108 32.7566 51.5153 32.9143L51.8305 33.0088C52.9025 33.3241 53.7222 34.1753 54.069 35.2473L54.1635 35.5625C54.3212 36.0354 54.7626 36.3822 55.267 36.3822C55.7714 36.3822 56.2128 36.067 56.3704 35.5625L56.465 35.2473C56.7803 34.1753 57.6315 33.3556 58.7034 33.0088L59.0187 32.9143C59.4916 32.7566 59.8384 32.3152 59.8384 31.8108C59.8384 31.3064 59.5232 30.865 59.0187 30.7074L58.7034 30.6128C57.6315 30.2975 56.8118 29.4463 56.465 28.3744L56.3704 28.0591C56.2128 27.5862 55.7714 27.2394 55.267 27.2394C54.7626 27.2394 54.3212 27.5547 54.1635 28.0591L54.069 28.3744C53.7222 29.4778 52.8709 30.2975 51.8305 30.6128ZM52.2089 31.8423C53.6591 31.401 54.7941 30.266 55.267 28.7842C55.7084 30.2345 56.8434 31.3694 58.3251 31.8423C56.8749 32.2837 55.7399 33.4187 55.267 34.9005C54.7941 33.4187 53.6591 32.2837 52.2089 31.8423Z" fill="#475240"/>
<path d="M51.0739 21.0286C49.2138 20.4611 47.7635 19.0108 47.1961 17.1507L47.07 16.7094C46.3764 18.2857 45.1153 19.5468 43.5074 20.1773C43.3498 20.2404 43.1921 20.3034 43.003 20.3665L42.53 20.5241C42.467 20.5241 42.467 20.5557 42.4355 20.5872C42.4039 20.6502 42.4039 20.7133 42.467 20.7763L42.53 20.8079L43.003 20.934C45.0522 21.5645 46.6601 23.1724 47.2906 25.2217L47.4483 25.6946C47.4483 25.7261 47.4798 25.7892 47.5744 25.7892C47.669 25.7892 47.7005 25.7261 47.7005 25.6946L47.8266 25.2217C48.3941 23.4246 49.7498 21.9113 51.4837 21.1547L51.0739 21.0286Z" fill="#5F6F56"/>
</svg>
